<svg width="14px" height="12px" viewBox="0 0 14 12">
    <g id="Page-1" stroke="none" stroke-width="1" fill="none" fill-rule="evenodd">
        <g id="Group-(1)" fill="currentColor" fill-rule="nonzero">
            <path d="M13.11828,7.920696 L8.527288,0.9585576 C8.123696,0.35315336 7.46788,0 6.761552,0 C6.055224,0 5.3489352,0.35315336 4.9957824,0.9585576 L0.35433888,7.920696 C-0.09971528,8.576568 -0.09971528,9.434208 0.25343752,10.09008 C0.606592,10.796408 1.363348,11.2 2.120104,11.2 L11.352544,11.2 C12.159728,11.2 12.866056,10.745952 13.219192,10.09008 C13.622784,9.434208 13.572384,8.576568 13.11828,7.920696 Z M12.109272,9.53512 C11.95796,9.837856 11.655224,9.989168 11.352544,9.989168 L2.120104,9.989168 C1.8174016,9.989168 1.5146992,9.837856 1.363348,9.53512 C1.2119968,9.23244 1.2119968,8.929704 1.4137984,8.627024 L6.055224,1.6648632 C6.408416,1.1603592 7.165144,1.1603592 7.51828,1.6648632 L12.109272,8.627024 C12.26064,8.879304 12.26064,9.23244 12.109272,9.53512 Z" id="Shape"></path>
            <path d="M7.51828,3.9351312 L7.51828,6.558552 C7.51828,6.760376 7.316512,6.962144 7.114688,6.962144 L6.408416,6.962144 C6.206592,6.962144 6.004768,6.760376 6.004768,6.558552 L6.004768,3.9351312 C6.004768,3.6828792 6.156136,3.531528 6.408416,3.531528 L7.114688,3.531528 C7.366968,3.4810776 7.51828,3.6828792 7.51828,3.9351312 Z" id="Path"></path>
            <path d="M7.568736,8.273888 C7.568736,8.727936 7.2156,9.081072 6.761552,9.081072 C6.307504,9.081072 5.954368,8.727936 5.954368,8.273888 C5.954368,7.81984 6.307504,7.466648 6.761552,7.466648 C7.2156,7.466648 7.568736,7.81984 7.568736,8.273888 Z" id="Path"></path>
        </g>
    </g>
</svg>