<svg width="12px" height="13px" viewBox="0 0 12 13" version="1.1">
    <g stroke="none" strokeWidth="1" fill="none" fillRule="evenodd">
        <g id="colored-flag" fill-rule="nonzero">
            <polygon fill="#572D2D" points="1 2 0 2 0 13 1 13" />
            <path d="M10.7852186,5.78656908 L11.9013195,7.24242537 C12.1419216,7.55204994 11.914676,8 11.5203815,8 L6,8 L6,3 L11.5203815,3 C11.914676,3 12.1419216,3.4479575 11.9013195,3.75757463 L10.7852186,5.21345322 C10.6582393,5.38471513 10.6582393,5.62188703 10.7852186,5.78656908 Z" fill="#FE5143" />
            <polygon fill="#572D2D" points="6 5 6 8 3 5" />
            <path d="M6,0.474308932 L6,5 L0,5 L0,0.474308932 C0,0.210803185 0.213808397,0 0.481068985,0 L5.52561493,0 C5.78620301,0 6,0.210803185 6,0.474308932 Z" fill="#FE5143" />
        </g>
    </g>
</svg>