<svg width="13px" height="13px" viewBox="0 0 13 13" version="1.1" xmlns="http://www.w3.org/2000/svg" xmlns:xlink="http://www.w3.org/1999/xlink">
    <g id="Page-1" stroke="none" stroke-width="1" fill="none" fill-rule="evenodd">
        <g id="search" fill="#572D2D">
            <path d="M10.9941751,5.47488913 C10.9941751,8.49861196 8.53308158,10.9497638 5.49709479,10.9497638 C2.46113701,10.9497638 0,8.49861196 0,5.47488913 C0,2.45119518 2.46113701,0 5.49709479,0 C8.53308158,0 10.9941751,2.45119518 10.9941751,5.47488913 Z M12.3147495,12.7543818 L12.7523787,12.326176 C13.0825404,11.9973479 13.0825404,11.4544531 12.7523787,11.1180417 L11.1938094,9.56576832 C10.9635011,9.33639037 10.5872923,9.33639037 10.3800438,9.58107944 C10.1420489,9.87162966 9.86562096,10.1392854 9.5738923,10.3839745 C9.32052417,10.5903858 9.32052417,10.9650749 9.55083246,11.1944529 L11.1094017,12.7467263 C11.4394909,13.0831376 11.9769736,13.0831376 12.3147495,12.7543818 Z" id="Shape"></path>
        </g>
    </g>
</svg>