<?xml version="1.0" encoding="UTF-8"?>
<svg width="15px" height="13px" viewBox="0 0 15 13" version="1.1" xmlns="http://www.w3.org/2000/svg" xmlns:xlink="http://www.w3.org/1999/xlink">
    <!-- Generator: Sketch 53.2 (72643) - https://sketchapp.com -->
    <title>Group</title>
    <desc>Created with Sketch.</desc>
    <g id="Page-1" stroke="none" stroke-width="1" fill="none" fill-rule="evenodd">
        <g id="Group" fill="#572D2D" fill-rule="nonzero">
            <path d="M0.618245588,12.48 L2.47298235,12.48 C2.82626882,12.48 3.09123176,12.22 3.09123176,11.8733588 L3.09123176,4.85334353 C3.09123176,4.50667176 2.82626882,4.24667176 2.47298235,4.24667176 L0.618245588,4.24667176 C0.264962176,4.24667176 0,4.50667176 0,4.85334353 L0,11.8733588 C0,12.22 0.264962176,12.48 0.618245588,12.48 Z" id="Path"></path>
            <path d="M14.4846765,6.58667176 L13.3364706,11.2666412 C13.1598235,11.96 12.5416353,12.48 11.8350471,12.48 L5.29928941,12.48 C4.68104765,12.48 4.23943765,11.96 4.23943765,11.44 L4.23943765,4.59333588 C4.23943765,4.33333588 4.32776118,4.16000765 4.50440059,3.98667176 L7.15403,0.606671765 C8.03721176,-0.519994647 9.98032941,0.0866717647 9.98032941,1.56000765 L9.98032941,4.33333588 L12.7182059,4.33333588 C13.8664118,4.24667176 14.7496471,5.46000765 14.4846765,6.58667176 Z" id="Path"></path>
        </g>
    </g>
</svg>