<?xml version="1.0" encoding="UTF-8"?>
<svg width="1440px" height="1114px" viewBox="0 0 1440 1114" version="1.1" xmlns="http://www.w3.org/2000/svg" xmlns:xlink="http://www.w3.org/1999/xlink">
    <g stroke="none" stroke-width="1" fill="none" fill-rule="evenodd">
        <g id="material-bg" fill="#F5F1E8" fill-rule="nonzero">
            <rect id="Rectangle" x="0" y="428" width="1440" height="686"></rect>
            <path d="M1440,615 L437,615 L788.383,263.363 C810.693,241.037 840.948,228.494 872.494,228.494 L1033.4,228.494 C1064.95,228.494 1095.21,215.951 1117.51,193.625 C1139.82,171.298 1170.08,158.755 1201.63,158.755 L1232.07,158.755 C1263.61,158.755 1293.88,146.212 1316.18,123.886 L1439.97,0 L1439.97,615 L1440,615 Z" id="Path"></path>
            <path d="M0,139 L123.9,139 C167.77,139 209.84,156.43 240.86,187.45 C271.88,218.47 313.95,235.9 357.82,235.9 L405.64,235.9 C449.51,235.9 491.58,253.33 522.6,284.35 L771.36,533.11 L0,533.11 L0,139 Z" id="Path"></path>
        </g>
    </g>
</svg>