<svg width="335" height="74" viewBox="0 0 335 74" fill="none" xmlns="http://www.w3.org/2000/svg">
<path d="M298.348 74.4987H0L16.3957 58.1029C24.2512 50.2474 34.9063 45.8334 46.0167 45.8334H74.7764C85.8867 45.8334 96.5418 41.4205 104.397 33.5639L125.692 12.2695C133.548 4.4129 144.202 0 155.313 0H161.313C172.423 0 183.078 4.41402 190.935 12.2695C198.791 20.1262 209.447 24.5391 220.557 24.5391H231.038C242.148 24.5391 252.803 28.952 260.659 36.8086L298.348 74.4987Z" fill="#F5F1E8"/>
<path d="M306.605 74.4037H292.484C292.484 70.5084 295.645 67.3503 299.545 67.3503C300.394 67.3503 301.207 67.4998 301.96 67.7738C304.67 68.7601 306.605 71.3566 306.605 74.4037Z" fill="#057764"/>
<path d="M334.999 74.4037H320.878C320.878 70.5084 324.039 67.3503 327.939 67.3503C328.788 67.3503 329.601 67.4998 330.354 67.7738C333.065 68.7601 334.999 71.3566 334.999 74.4037Z" fill="#057764"/>
<path d="M324.845 69.9265C324.845 71.5141 324.523 73.028 323.942 74.4038H302.663C302.082 73.0269 301.761 71.5141 301.761 69.9265C301.761 69.1905 301.829 68.4715 301.961 67.7739C302.971 62.4338 307.665 58.3948 313.303 58.3948C319.678 58.3948 324.845 63.5582 324.845 69.9265Z" fill="#057764"/>
<path d="M277.388 74.26H249.57C249.57 66.585 255.797 60.365 263.479 60.365C265.151 60.365 266.753 60.6594 268.238 61.1984C273.578 63.1415 277.388 68.2563 277.388 74.26Z" fill="#057764"/>
<path d="M313.323 65.4391C313.323 68.5678 312.69 71.5481 311.544 74.2601H269.622C268.476 71.5481 267.844 68.5678 267.844 65.4391C267.844 63.9897 267.979 62.572 268.239 61.1985C270.228 50.679 279.475 42.7209 290.583 42.7209C303.141 42.7221 313.323 52.8939 313.323 65.4391Z" fill="#057764"/>
</svg>
