<?xml version="1.0" encoding="UTF-8"?>
<svg width="398px" height="245px" viewBox="0 0 398 245" version="1.1" xmlns="http://www.w3.org/2000/svg" xmlns:xlink="http://www.w3.org/1999/xlink">
    <!-- Generator: Sketch 53.2 (72643) - https://sketchapp.com -->
    <title>roofing-dude-cta</title>
    <desc>Created with Sketch.</desc>
    <defs>
        <polygon id="path-1-roofing-dude" points="0 0 449.116 0 449.116 284 0 284"></polygon>
    </defs>
    <g id="Page-1" stroke="none" stroke-width="1" fill="none" fill-rule="evenodd">
        <g id="roofing-dude-cta" transform="translate(-50.000000, -39.000000)">
            <mask id="mask-2" fill="white">
                <use xlink:href="#path-1-roofing-dude"></use>
            </mask>
            <g id="Path"></g>
            <g id="Group" mask="url(#mask-2)">
                <g transform="translate(47.000000, 39.000000)" id="Path">
                    <path d="M114.684,6.0247 C114.684,6.0247 113.778,19.6057 113.834,19.3061 C113.888,19.0066 133.773,19.9545 133.773,19.9545 L126.238,7.9312 L114.684,6.0247 Z" stroke="none" fill="#572D2D" fill-rule="nonzero"></path>
                    <path d="M114.123,263.44 C114.123,271.232 112.545,278.661 109.69,285.418 L5.2346,285.418 C2.3794,278.661 0.8057,271.232 0.8057,263.44 C0.8057,259.827 1.142,256.295 1.7907,252.875 C6.7482,226.664 29.7857,206.834 57.464,206.834 C88.755,206.834 114.123,232.181 114.123,263.44 Z" stroke="none" fill="#057764" fill-rule="nonzero"></path>
                    <path d="M45.7426,113.509 L25.887,180.392 C24.8482,183.89 24.4026,187.539 24.5654,191.187 L27.5684,257.847 L43.9305,258.574 L51.3202,223.574 L56.116,196.54 L90.652,123.147 L45.7426,113.509 Z" stroke="none" fill="#FF726D" fill-rule="nonzero"></path>
                    <path d="M236.45,205.076 L209.644,182.424 C209.441,189.92 202.582,209.135 200.52,216.346 C197.185,228.01 193.852,239.671 190.517,251.335 L190.872,253.255 L178.085,248.429 L190.799,299.692 C195.103,297.841 196.124,292.32 196.555,287.66 C197.21,280.573 197.864,273.486 198.519,266.399 C212.18,251.318 223.646,234.254 232.428,215.903 C234.096,212.419 235.679,208.857 236.45,205.076 Z" stroke="none" fill="#FF726D" fill-rule="nonzero"></path>
                    <path d="M208.449,198.654 L190.112,126.117 C187.807,117.001 193.734,107.847 203.002,106.21 L205.249,105.812 C213.043,104.434 220.694,108.885 223.344,116.338 L244.846,176.829 C246.219,180.693 246.074,184.936 244.44,188.698 L239.029,201.141 C234.589,211.354 221.392,214.144 213.191,206.604 C210.867,204.47 209.22,201.708 208.449,198.654 Z" stroke="none" fill="#FF726D" fill-rule="nonzero"></path>
                    <path d="M209.631,190.926 C209.631,190.926 190.512,236.548 190.812,263.678" stroke="#572D2D" stroke-width="1" fill="none"></path>
                    <path d="M191.787,232.488 C193.678,260.802 190.307,384.989 185.845,413.013 L97.992,412.894 L90.832,363.054 C80.57,321.297 76.597,278.003 79.088,235.077" stroke="none" fill="#572D2D" fill-rule="nonzero"></path>
                    <path d="M120.063,4.621 C120.063,4.621 110.953,14.7613 113.883,32.8487 C116.813,50.9361 121.924,49.2649 131.605,49.9603 C141.287,50.6558 152.376,52.9881 147.34,21.1549 C147.338,21.1549 146.226,-8.5514 120.063,4.621 Z" stroke="none" fill="#FF726D" fill-rule="nonzero"></path>
                    <path d="M147.844,54.5354 L147.844,37.3103 L121.228,37.3103 L121.228,56.6794 C121.228,64.203 115.614,70.539 108.141,71.474 C94.797,73.141 82.378,74.992 82.378,74.992 L101.48,111.586 L143.341,118.904 L180.806,72.484 C175.766,71.322 167.766,70.186 160.909,69.328 C153.443,68.392 147.844,62.052 147.844,54.5354 Z" stroke="none" fill="#FF726D" fill-rule="nonzero"></path>
                    <path d="M114.826,37.4258 C117.197,36.4651 121.279,35.5792 122.862,35.622 C128.305,35.7697 133.507,40.1947 138.689,38.5193 C141.053,37.7532 142.861,35.8189 144.202,33.7283 C145.037,32.4274 146.594,29.6585 147.98,27.2534 C148.287,30.3732 148.445,30.6 148.46,33.7369 C148.481,39.0414 147.783,44.9707 143.714,48.3814 C141.197,50.4891 137.828,51.2273 134.574,51.6788 C130.513,52.2437 126.12,52.402 122.588,50.3201 C119.165,48.3001 116.963,46.2032 116.246,42.2981 C115.879,40.3102 114.618,38.7033 114.686,36.6833" stroke="none" fill="#572D2D" fill-rule="nonzero"></path>
                    <path d="M80.829,221.419 C105.553,220.172 130.539,224.126 154.997,220.302 C167.228,218.389 179.317,214.538 191.68,215.148" stroke="#572D2D" stroke-width="1" fill="none"></path>
                    <path d="M147.391,23.4788 L150.831,23.4788 C150.831,23.4788 152.142,13.377 148.867,8.1795 C147.982,6.778 146.425,5.9435 144.767,5.9435 L144.251,5.9435 C144.251,5.9435 141.953,-0.9466 134.064,0.2025 C130.269,0.7546 127.748,1.9849 123.911,1.9186 C121.626,1.8779 119.214,2.1411 117.111,2.9756 C116.727,3.1275 116.4,3.4934 116.121,3.9792 C114.555,6.7159 116.083,10.1994 119.126,11.0404 C122.179,11.8834 125.439,11.5454 128.242,10.0775 C131.035,8.6139 134.64,7.0176 136.984,7.0711 C146.472,7.2915 145.324,18.0224 147.391,23.4788 Z" stroke="none" fill="#572D2D" fill-rule="nonzero"></path>
                    <path d="M228.457,127.612 C226.172,119.988 219.123,101.045 217.002,95.61 C211.624,81.828 199.713,77.215 196.02,76.087 C195.999,75.939 195.988,75.86 195.988,75.86 C187.879,73.444 175.286,70.83 168.436,69.764 C159.04,82.269 149.568,83.985 132.711,83.985 C116.887,83.985 109.966,80.647 100.516,69.428 C85.696,72.832 73.369,78.943 67.123,82.421 C61.968,84.898 54.48,90.077 50.5235,100.213 C48.403,105.648 41.354,124.591 39.0685,132.215 L66.335,144.123 C68.676,177.526 72.253,213.723 78.553,231.906 L119.765,235.413 C131.801,236.438 143.901,236.451 155.94,235.454 L191.785,232.486 C197.093,197.082 198.922,165.644 199.173,140.397 L228.457,127.612 Z" stroke="none" fill="#EEEBE4" fill-rule="nonzero"></path>
                    <path d="M151.952,86.63 C146.124,88.879 139.319,89.349 130.486,89.349 C114.661,89.349 107.741,86.011 98.291,74.792" stroke="#572D2D" stroke-width="1" fill="none"></path>
                    <path d="M164.442,80.204 C164.088,80.572 164.266,80.394 163.91,80.737" stroke="#572D2D" stroke-width="1" fill="none"></path>
                    <path d="M168.509,75.477 C167.824,76.389 167.136,77.244 166.449,78.047" stroke="#572D2D" stroke-width="1" fill="none"></path>
                    <path d="M197.281,129.763 L194.085,131.121" stroke="#572D2D" stroke-width="1" fill="none"></path>
                    <path d="M225.177,117.896 L201.481,127.976" stroke="#572D2D" stroke-width="1" fill="none"></path>
                    <path d="M174.795,117.919 L177.152,117.919" stroke="#572D2D" stroke-width="1" fill="none"></path>
                    <path d="M182.052,117.919 C182.052,122.832 178.066,126.814 173.148,126.814 L160.903,126.814 C155.985,126.814 151.999,122.832 151.999,117.919 L172.126,117.919" stroke="#572D2D" stroke-width="1" fill="none"></path>
                    <path d="M66.688,122.368 C66.688,122.368 63.214,174.338 78.556,231.911" stroke="#572D2D" stroke-width="1" fill="none"></path>
                    <path d="M115.068,14.1814 C113.097,20.1963 111.992,29.8295 116.55,43.2158 C117.852,47.0417 120.941,50.0138 124.828,51.1201 C126.21,51.5138 127.823,51.7812 129.688,51.8262 C129.688,51.8262 147.668,54.3147 148.201,38.4398 L148.201,23.7461" stroke="#572D2D" stroke-width="1" fill="none"></path>
                    <path d="M119.02,6.5918 C119.02,6.5918 116.736,9.0932 115.07,14.1794" stroke="#572D2D" stroke-width="1" fill="none"></path>
                    <path d="M148.203,27.5422 C150.3,27.5422 152.001,25.8436 152.001,23.7484 C152.001,21.6531 150.3,19.9546 148.203,19.9546 C146.106,19.9546 144.405,21.6531 144.405,23.7484 C144.405,25.8436 146.106,27.5422 148.203,27.5422 Z" stroke="none" fill="#FF726D" fill-rule="nonzero"></path>
                    <path d="M130.88,0.8401 C130.88,0.8401 123.933,2.6225 118.596,1.2531 C113.258,-0.1164 109.91,11.7357 122.573,11.1944 C135.236,10.6509 130.88,0.8401 130.88,0.8401 Z" stroke="none" fill="#572D2D" fill-rule="nonzero"></path>
                    <path d="M118.259,2.4192 C117.274,2.3807 116.421,2.7508 115.783,4.1117" stroke="#FFFFFF" stroke-width="1" fill="none" stroke-linecap="round"></path>
                    <path d="M119.55,2.6368 C119.333,2.5815 119.759,2.5325 119.55,2.4941" stroke="#FFFFFF" stroke-width="1" fill="none" stroke-linecap="round"></path>
                    <path d="M87.114,232.638 C87.114,232.638 165.474,234.669 192.545,227.299 L192.325,237.45 C192.325,237.45 115.376,251.564 87.964,237.45" stroke="none" fill="#B76C59" fill-rule="nonzero"></path>
                    <path d="M77.719,287.816 L98.198,286.507 C101.764,286.28 104.615,283.856 104.939,280.781 L109.807,225.654 L71.523,228.372 L69.88,281.222 C69.67,285.007 73.343,288.094 77.719,287.816 Z" stroke="none" fill="#B76C59" fill-rule="nonzero"></path>
                    <path d="M103.471,237.453 L103.471,246.078 L87.114,246.078 L87.114,241.627 C87.512,241.743 87.934,241.805 88.369,241.805 C90.817,241.805 92.815,239.875 92.916,237.453 L103.471,237.453 Z" stroke="#FFFFFF" stroke-width="1" fill="none"></path>
                    <path d="M108.738,250.642 L109.167,232.893 C109.167,232.893 169.166,234.121 192.545,227.299" stroke="#572D2D" stroke-width="1" fill="none"></path>
                    <path d="M113.993,238.972 C113.993,238.972 153.425,241.993 192.216,232.702" stroke="#572D2D" stroke-width="1" fill="none"></path>
                    <path d="M71.522,228.372 L110.015,225.654" stroke="#572D2D" stroke-width="1" fill="none"></path>
                    <path d="M55.387,189.991 C53.344,211.788 49.9209,233.456 45.1465,254.823" stroke="#572D2D" stroke-width="1" fill="none"></path>
                    <polyline stroke="#B76C59" stroke-width="1" fill="none" points="129.406 268.67 141.128 268.67 143.103 243.724"></polyline>
                    <path d="M276.928,285.486 L180.876,285.486 C180.876,258.985 202.375,237.508 228.902,237.508 C234.675,237.508 240.205,238.525 245.332,240.386 C263.77,247.095 276.928,264.756 276.928,285.486 Z" stroke="none" fill="#057764" fill-rule="nonzero"></path>
                    <path d="M401.007,255.028 C401.007,265.831 398.819,276.122 394.862,285.486 L250.111,285.486 C246.154,276.122 243.974,265.831 243.974,255.028 C243.974,250.024 244.44,245.129 245.336,240.386 C252.205,204.064 284.134,176.586 322.489,176.586 C365.849,176.59 401.007,211.711 401.007,255.028 Z" stroke="none" fill="#057764" fill-rule="nonzero"></path>
                    <path d="M126.626,33.0757 L122.153,31.8239 L123.529,24.0266 C123.638,23.1793 123.634,22.3277 123.516,21.4932 C123.261,19.6658 121.751,18.3113 119.962,18.1573 C119.3,18.0995 118.641,18.0439 117.985,17.9369 L113.948,17.2693" stroke="#572D2D" stroke-width="1" fill="none"></path>
                    <path d="M131.464,19.5715 C131.464,19.5715 132.52,16.3212 137.543,17.6521" stroke="#572D2D" stroke-width="1" fill="none"></path>
                    <path d="M134.504,22.642 C134.966,22.642 135.341,22.2675 135.341,21.8054 C135.341,21.3433 134.966,20.9688 134.504,20.9688 C134.041,20.9688 133.666,21.3433 133.666,21.8054 C133.666,22.2675 134.041,22.642 134.504,22.642 Z" stroke="none" fill="#572D2D" fill-rule="nonzero"></path>
                    <path d="M118.259,22.642 C118.722,22.642 119.097,22.2675 119.097,21.8054 C119.097,21.3433 118.722,20.9688 118.259,20.9688 C117.797,20.9688 117.422,21.3433 117.422,21.8054 C117.422,22.2675 117.797,22.642 118.259,22.642 Z" stroke="none" fill="#572D2D" fill-rule="nonzero"></path>
                    <path d="M123.8,41.0955 C123.8,41.0955 125.895,41.7524 128.425,41.6967" stroke="#FF726D" stroke-width="1" fill="none" stroke-linecap="round"></path>
                </g>
            </g>
        </g>
    </g>
</svg>