<svg width="527" height="170" viewBox="0 0 527 170" fill="none" xmlns="http://www.w3.org/2000/svg">
<path d="M437.37 74.4688H388.528C388.528 60.9943 399.459 50.0737 412.947 50.0737C415.882 50.0737 418.695 50.5896 421.303 51.5368C430.677 54.9449 437.37 63.926 437.37 74.4688Z" fill="#057764"/>
<path d="M500.462 58.9818C500.462 64.4731 499.35 69.7078 497.338 74.4689H423.732C421.72 69.7078 420.611 64.4731 420.611 58.9818C420.611 56.4363 420.848 53.9473 421.305 51.5371C424.799 33.0676 441.032 19.0942 460.536 19.0942C482.586 19.0942 500.462 36.9549 500.462 58.9818Z" fill="#057764"/>
<path d="M527.169 0L482.665 44.2709C465.822 61.0252 442.983 70.4336 419.162 70.4336H369.644C345.827 70.4336 322.984 79.8465 306.141 96.5963C289.298 113.351 266.46 122.759 242.639 122.759H196.961C173.145 122.759 150.301 132.172 133.458 148.922L111.245 171.019H527.169V0Z" fill="#F5F1E8"/>
<path d="M141.987 171.023H106.834C106.834 161.326 114.701 153.464 124.411 153.464C126.524 153.464 128.547 153.836 130.424 154.519C137.171 156.974 141.987 163.438 141.987 171.023Z" fill="#057764"/>
<path d="M212.672 171.023H177.519C177.519 161.326 185.386 153.464 195.095 153.464C197.209 153.464 199.232 153.836 201.108 154.519C207.855 156.974 212.672 163.438 212.672 171.023Z" fill="#057764"/>
<path d="M187.396 159.878C187.396 163.83 186.594 167.599 185.147 171.024H132.174C130.726 167.596 129.928 163.83 129.928 159.878C129.928 158.045 130.097 156.255 130.427 154.519C132.941 141.225 144.626 131.17 158.662 131.17C174.531 131.17 187.396 144.024 187.396 159.878Z" fill="#057764"/>
<path d="M69.2517 170.666H0C0 151.559 15.4999 136.075 34.6258 136.075C38.7879 136.075 42.7751 136.808 46.4716 138.149C59.7649 142.987 69.2517 155.72 69.2517 170.666Z" fill="#057764"/>
<path d="M158.71 148.707C158.71 156.495 157.133 163.915 154.28 170.666H49.9167C47.0639 163.915 45.4922 156.495 45.4922 148.707C45.4922 145.098 45.828 141.569 46.4742 138.15C51.4264 111.962 74.4463 92.1509 102.1 92.1509C133.362 92.1537 158.71 117.476 158.71 148.707Z" fill="#057764"/>
</svg>
