<?xml version="1.0" encoding="UTF-8"?>
<svg width="801px" height="637px" viewBox="0 0 801 637" version="1.1" xmlns="http://www.w3.org/2000/svg" xmlns:xlink="http://www.w3.org/1999/xlink">
    <!-- Generator: Sketch 53.2 (72643) - https://sketchapp.com -->
    <title>Conecto-entrepreneur</title>
    <desc>Created with Sketch.</desc>
    <g id="Page-1" stroke="none" stroke-width="1" fill="none" fill-rule="evenodd">
        <g id="Conecto-entrepreneur">
            <path d="M667.401,52.63 L124.32,52.63 C104.25,52.63 87.9805,68.9 87.9805,88.97 L87.9805,597.42 C87.9805,617.49 104.25,633.76 124.32,633.76 L667.401,633.76 C687.471,633.76 703.74,617.49 703.74,597.42 L703.74,88.97 C703.74,68.9 687.471,52.63 667.401,52.63 Z" id="Path" fill="#FBF5DA" fill-rule="nonzero"></path>
            <path d="M704.351,161.1 C704.348,151.869 700.68,143.016 694.152,136.489 C687.625,129.961 678.772,126.293 669.541,126.29 L559.001,126.29 C549.77,126.293 540.919,129.961 534.393,136.489 C527.867,143.017 524.201,151.87 524.201,161.1 L524.201,164.15 C524.2,172.832 520.956,181.2 515.104,187.614 C509.253,194.028 501.216,198.025 492.571,198.82 L451.091,202.62 C442.444,203.413 434.407,207.409 428.555,213.823 C422.703,220.238 419.459,228.607 419.461,237.29 L419.461,273.39 C419.458,282.621 415.79,291.474 409.262,298.001 C402.735,304.529 393.882,308.197 384.651,308.2 L364.361,308.2 C355.13,308.2 346.278,311.866 339.75,318.392 C333.222,324.918 329.553,333.77 329.551,343 L329.551,458.8 C329.551,468.032 333.218,476.886 339.746,483.414 C346.275,489.943 355.129,493.61 364.361,493.61 L765.191,493.61 C769.762,493.611 774.288,492.712 778.511,490.964 C782.735,489.216 786.572,486.652 789.805,483.421 C793.037,480.189 795.601,476.352 797.351,472.13 C799.1,467.907 800.001,463.381 800.001,458.81 L800.001,230.72 C800.001,221.488 796.333,212.634 789.805,206.106 C783.277,199.577 774.423,195.91 765.191,195.91 L739.191,195.91 C734.617,195.915 730.086,195.019 725.859,193.272 C721.631,191.524 717.79,188.961 714.554,185.728 C711.318,182.495 708.752,178.656 707.001,174.43 C705.25,170.204 704.349,165.674 704.351,161.1 L704.351,161.1 Z" id="Path" stroke="#F2533F" stroke-width="0.45"></path>
            <path d="M704.351,161.1 C704.348,151.869 700.68,143.016 694.152,136.489 C687.625,129.961 678.772,126.293 669.541,126.29 L559.001,126.29 C549.77,126.293 540.919,129.961 534.393,136.489 C527.867,143.017 524.201,151.87 524.201,161.1 L524.201,164.15 C524.2,172.832 520.956,181.2 515.104,187.614 C509.253,194.028 501.216,198.025 492.571,198.82 L451.091,202.62 C442.444,203.413 434.407,207.409 428.555,213.823 C422.703,220.238 419.459,228.607 419.461,237.29 L419.461,273.39 C419.458,282.621 415.79,291.474 409.262,298.001 C402.735,304.529 393.882,308.197 384.651,308.2 L364.361,308.2 C355.13,308.2 346.278,311.866 339.75,318.392 C333.222,324.918 329.553,333.77 329.551,343 L329.551,458.8 C329.551,468.032 333.218,476.886 339.746,483.414 C346.275,489.943 355.129,493.61 364.361,493.61 L765.191,493.61 C769.762,493.611 774.288,492.712 778.511,490.964 C782.735,489.216 786.572,486.652 789.805,483.421 C793.037,480.189 795.601,476.352 797.351,472.13 C799.1,467.907 800.001,463.381 800.001,458.81 L800.001,230.72 C800.001,221.488 796.333,212.634 789.805,206.106 C783.277,199.577 774.423,195.91 765.191,195.91 L739.191,195.91 C734.617,195.915 730.086,195.019 725.859,193.272 C721.631,191.524 717.79,188.961 714.554,185.728 C711.318,182.495 708.752,178.656 707.001,174.43 C705.25,170.204 704.349,165.674 704.351,161.1 L704.351,161.1 Z" id="Path" stroke="#25B590" stroke-width="1.36"></path>
            <path d="M113.38,210 C113.38,195.858 118.997,182.295 128.996,172.294 C138.996,162.292 152.558,156.673 166.7,156.67 L336,156.67 C343.006,156.666 349.944,158.043 356.418,160.721 C362.891,163.399 368.774,167.327 373.729,172.279 C378.685,177.232 382.616,183.112 385.298,189.585 C387.98,196.057 389.36,202.994 389.36,210 L389.36,214.67 C389.359,227.969 394.328,240.788 403.292,250.612 C412.256,260.436 424.567,266.555 437.81,267.77 L501.36,273.6 C514.605,274.815 526.918,280.936 535.881,290.762 C544.845,300.588 549.813,313.41 549.81,326.71 L549.81,382 C549.81,389.003 551.189,395.938 553.87,402.409 C556.55,408.879 560.478,414.758 565.43,419.71 C570.382,424.662 576.261,428.59 582.732,431.271 C589.202,433.951 596.137,435.33 603.14,435.33 L634.22,435.33 C648.362,435.333 661.924,440.952 671.924,450.954 C681.923,460.955 687.54,474.518 687.54,488.66 L687.54,636.49 L53.33,636.49 C39.186,636.49 25.6213,630.871 15.62,620.87 C5.61868,610.869 0,597.304 0,583.16 L0,316.64 C0.00265184,302.498 5.6225,288.936 15.6235,278.936 C25.6246,268.937 39.1877,263.32 53.33,263.32 L60.05,263.32 C74.1923,263.32 87.7554,257.703 97.7565,247.704 C107.757,237.704 113.377,224.142 113.38,210 Z" id="Path" fill="#F7F1E8" fill-rule="nonzero"></path>
            <path d="M174.69,636.49 L56.4796,636.49 C56.3778,628.664 57.8314,620.895 60.756,613.635 C63.6807,606.374 68.0181,599.767 73.5166,594.197 C79.0151,588.626 85.5652,584.203 92.7867,581.185 C100.008,578.166 107.757,576.611 115.585,576.611 C123.412,576.611 131.161,578.166 138.382,581.185 C145.604,584.203 152.154,588.626 157.653,594.197 C163.151,599.767 167.489,606.374 170.413,613.635 C173.338,620.895 174.791,628.664 174.69,636.49 Z" id="Path" fill="#007863" fill-rule="nonzero"></path>
            <path d="M327.391,599 C327.409,611.887 324.838,624.646 319.831,636.52 L141.691,636.52 C136.684,624.646 134.113,611.887 134.131,599 C134.131,573.372 144.312,548.794 162.433,530.672 C180.555,512.551 205.133,502.37 230.761,502.37 C256.389,502.37 280.967,512.551 299.089,530.672 C317.21,548.794 327.391,573.372 327.391,599 Z" id="Path" fill="#007863" fill-rule="nonzero"></path>
            <path d="M415.001,358.49 C417.921,402.15 412.721,593.63 405.851,636.84 L270.531,636.66 L259.531,559.81 C243.71,495.304 237.613,428.797 241.441,362.49" id="Path" fill="#592E2C" fill-rule="nonzero"></path>
            <path d="M417.87,636.55 L362.87,636.55 C362.728,632.85 363.335,629.16 364.654,625.701 C365.972,622.241 367.975,619.083 370.543,616.416 C373.11,613.749 376.189,611.627 379.596,610.177 C383.003,608.728 386.667,607.981 390.37,607.981 C394.072,607.981 397.736,608.728 401.143,610.177 C404.55,611.627 407.629,613.749 410.197,616.416 C412.764,619.083 414.767,622.241 416.085,625.701 C417.404,629.16 418.011,632.85 417.87,636.55 Z" id="Path" fill="#007863" fill-rule="nonzero"></path>
            <path d="M528.549,636.55 L473.549,636.55 C473.408,632.85 474.015,629.16 475.333,625.701 C476.652,622.241 478.655,619.083 481.222,616.416 C483.79,613.749 486.869,611.627 490.276,610.177 C493.683,608.728 497.347,607.981 501.049,607.981 C504.752,607.981 508.416,608.728 511.823,610.177 C515.229,611.627 518.309,613.749 520.876,616.416 C523.444,619.083 525.447,622.241 526.765,625.701 C528.084,629.16 528.69,632.85 528.549,636.55 Z" id="Path" fill="#007863" fill-rule="nonzero"></path>
            <path d="M489,619.08 C489.009,625.08 487.812,631.021 485.48,636.55 L402.5,636.55 C399.925,630.409 398.745,623.773 399.046,617.12 C399.346,610.468 401.119,603.965 404.237,598.081 C407.355,592.197 411.74,587.078 417.075,583.094 C422.411,579.11 428.564,576.359 435.091,575.041 C441.619,573.723 448.357,573.87 454.821,575.471 C461.285,577.072 467.312,580.088 472.469,584.301 C477.626,588.514 481.784,593.819 484.643,599.833 C487.501,605.847 488.99,612.421 489,619.08 Z" id="Path" fill="#007863" fill-rule="nonzero"></path>
            <polygon id="Path" fill="#25B590" fill-rule="nonzero" points="502.521 401.31 380.961 438.08 424.351 459.46 541.371 420.99"></polygon>
            <path d="M440.2,386.68 L435.83,410.23 C435.07,414.5 438.01,421.16 441.08,424.23 L444.69,411.93 L448.41,397.32 L440.2,386.68 Z" id="Path" fill="#FF736D" fill-rule="nonzero"></path>
            <path d="M466.4,185.527426 L483.409,270.3 C484.519,275.82 485.269,270.24 484.519,275.82 L467.739,378.93 L445.029,387.93 L438.479,333.17 L434.819,291 L391.869,173.53 L466.4,185.527426 Z" id="Path" fill="#FF736D" fill-rule="nonzero"></path>
            <path d="M436.83,281 C436.981,314.777 439.265,348.511 443.67,382" id="Path" stroke="#592E2C" stroke-width="1.32"></path>
            <path d="M296.211,9.32 C296.211,9.32 294.811,30.26 294.901,29.8 C294.991,29.34 325.611,30.8 325.611,30.8 L314.001,12.26 L296.211,9.32 Z" id="Path" fill="#592E2C" fill-rule="nonzero"></path>
            <path d="M190,175 L159.43,278.17 C157.838,283.566 157.162,289.191 157.43,294.81 L162,397.59 L187.21,398.71 L198.59,344.71 L206,303.06 L259.19,189.9 L190,175 Z" id="Path" fill="#FF736D" fill-rule="nonzero"></path>
            <path d="M304.49,7.15 C304.49,7.15 290.49,22.79 294.97,50.68 C299.45,78.57 307.36,75.99 322.27,77.06 C337.18,78.13 354.27,81.73 346.51,32.65 C346.51,32.65 344.79,-13.16 304.49,7.15 Z" id="Path" fill="#FF736D" fill-rule="nonzero"></path>
            <path d="M347.28,84.11 L347.28,57.55 L306.28,57.55 L306.28,87.42 C306.276,93.026 304.226,98.437 300.513,102.638 C296.801,106.838 291.683,109.538 286.12,110.23 C265.56,112.8 246.43,115.65 246.43,115.65 L275.86,172.08 L340.34,183.36 L398.04,111.79 C390.28,110 377.96,108.24 367.4,106.92 C361.844,106.219 356.735,103.515 353.031,99.316 C349.327,95.116 347.282,89.71 347.28,84.11 Z" id="Path" fill="#FF736D" fill-rule="nonzero"></path>
            <path d="M296.43,57.73 C300.08,56.25 306.37,54.88 308.81,54.95 C317.19,55.18 325.2,61.95 333.18,59.42 C336.83,58.24 339.61,55.25 341.67,52.03 C342.96,50.03 345.36,45.75 347.49,42.03 C347.966,45.3424 348.213,48.6836 348.23,52.03 C348.23,60.21 347.23,69.35 340.92,74.61 C337.05,77.86 331.85,79 326.84,79.7 C320.59,80.57 313.84,80.82 308.38,77.6 C303.11,74.49 299.72,71.26 298.61,65.24 C298.05,62.17 296.1,59.69 296.21,56.58" id="Path" fill="#592E2C" fill-rule="nonzero"></path>
            <path d="M244.061,341.43 C282.141,339.5 320.631,345.6 358.301,339.7 C377.141,336.75 395.761,330.82 414.811,331.75" id="Path" stroke="#592E2C" stroke-width="1.32"></path>
            <path d="M346.591,36.23 L351.891,36.23 C351.891,36.23 353.891,20.65 348.891,12.64 C348.216,11.5792 347.283,10.7065 346.18,10.1032 C345.076,9.5 343.838,9.1858 342.581,9.19 L341.781,9.19 C340.635,6.0971 338.43,3.5107 335.557,1.8903 C332.684,0.2699 329.33,-0.2794 326.091,0.34 C320.251,1.19 316.361,3.09 310.451,2.98 C306.895,2.8454 303.347,3.3988 300.001,4.61 C299.335,4.9455 298.798,5.49 298.471,6.16 C297.921,7.1584 297.605,8.2688 297.547,9.4072 C297.489,10.5456 297.691,11.6823 298.137,12.7313 C298.583,13.7803 299.261,14.7142 300.121,15.4624 C300.981,16.2106 302,16.7534 303.101,17.05 C307.787,18.344 312.789,17.8152 317.101,15.57 C321.401,13.31 326.951,10.85 330.571,10.93 C345.181,11.27 343.411,27.81 346.571,36.23" id="Path" fill="#592E2C" fill-rule="nonzero"></path>
            <path d="M471.45,196.79 C467.93,185.03 457.08,155.79 453.81,147.45 C445.53,126.2 427.18,119.08 421.49,117.34 C421.49,117.11 421.44,116.99 421.44,116.99 C407.478,113.074 393.31,109.939 379,107.6 C364.53,126.88 349.94,129.52 324,129.52 C299.62,129.52 289,124.38 274.41,107.08 C256.431,111.37 239.124,118.099 222.97,127.08 C211.251,132.62 202.1,142.44 197.4,154.52 C194.14,162.9 183.28,192.1 179.76,203.86 L221.76,222.22 C225.37,273.72 230.88,329.53 240.58,357.57 L304,363 C322.539,364.58 341.178,364.6 359.72,363.06 L415,358.49 C422.065,311.476 425.867,264.029 426.38,216.49 L471.45,196.79 Z" id="Path" fill="#E4E1E6" fill-rule="nonzero"></path>
            <path d="M353.611,133.6 C344.611,137.06 334.151,137.79 320.551,137.79 C296.171,137.79 285.551,132.64 270.961,115.35" id="Path" stroke="#592E2C" stroke-width="1.32"></path>
            <path d="M372.849,123.69 C372.309,124.26 372.579,123.98 372.029,124.51" id="Path" stroke="#592E2C" stroke-width="1.32"></path>
            <path d="M379.109,116.4 C378.056,117.807 376.999,119.14 375.939,120.4" id="Path" stroke="#592E2C" stroke-width="1.32"></path>
            <path d="M423.43,200.1 L418.51,202.2" id="Path" stroke="#592E2C" stroke-width="1.32"></path>
            <path d="M466.4,181.81 L429.9,197.35" id="Path" stroke="#592E2C" stroke-width="1.32"></path>
            <path d="M388.801,181.84 L392.431,181.84" id="Path" stroke="#592E2C" stroke-width="1.32"></path>
            <path d="M399.999,181.84 C399.999,183.642 399.645,185.426 398.955,187.09 C398.266,188.755 397.255,190.267 395.981,191.542 C394.707,192.816 393.194,193.826 391.53,194.516 C389.865,195.205 388.081,195.56 386.279,195.56 L367.399,195.56 C365.598,195.56 363.815,195.205 362.151,194.515 C360.487,193.826 358.975,192.815 357.701,191.541 C356.428,190.267 355.419,188.754 354.73,187.09 C354.042,185.425 353.688,183.641 353.688998,181.84 L384.689,181.84" id="Path" stroke="#592E2C" stroke-width="1.32"></path>
            <path d="M222.279,188.7 C222.279,188.7 216.929,268.83 240.559,357.6" id="Path" stroke="#592E2C" stroke-width="1.32"></path>
            <path d="M296.8,21.89 C293.8,31.17 292.06,46.02 299.08,66.66 C300.062,69.572 301.736,72.203 303.959,74.326 C306.181,76.449 308.886,78.002 311.84,78.85 C314.278,79.525 316.791,79.892 319.32,79.94 C319.32,79.94 347,83.77 347.84,59.3 L347.84,36.64" id="Path" stroke="#592E2C" stroke-width="1.32"></path>
            <path d="M302.891,10.19 C302.891,10.19 299.371,14.05 296.801,21.89" id="Path" stroke="#592E2C" stroke-width="1.32"></path>
            <path d="M347.84,42.49 C351.071,42.49 353.69,39.8709 353.69,36.64 C353.69,33.4091 351.071,30.79 347.84,30.79 C344.609,30.79 341.99,33.4091 341.99,36.64 C341.99,39.8709 344.609,42.49 347.84,42.49 Z" id="Path" fill="#FF736D" fill-rule="nonzero"></path>
            <path d="M321.16,1.32 C321.16,1.32 310.46,4.07 302.23,1.96 C294,-0.15 288.86,18.12 308.36,17.28 C327.86,16.44 321.16,1.32 321.16,1.32 Z" id="Path" fill="#592E2C" fill-rule="nonzero"></path>
            <path d="M301.71,3.75 C300.2,3.75 298.88,4.26 297.9,6.37" id="Path" stroke="#FFFFFF" stroke-width="0.99" stroke-linecap="round"></path>
            <path d="M303.701,4.09 C303.371,4 304.031,3.93 303.701,3.87" id="Path" stroke="#FFFFFF" stroke-width="0.99" stroke-linecap="round"></path>
            <path d="M253.74,358.72 C253.74,358.72 374.44,361.85 416.14,350.49 L415.8,366.15 C415.8,366.15 297.28,387.91 255.05,366.15" id="Path" fill="#B76C59" fill-rule="nonzero"></path>
            <path d="M239.271,443.8 L270.811,441.8 C276.301,441.45 280.701,437.71 281.191,432.97 L288.691,347.97 L229.691,352.16 L227.151,433.64 C226.871,439.47 232.531,444.23 239.271,443.8 Z" id="Path" fill="#B76C59" fill-rule="nonzero"></path>
            <path d="M240.61,403.3 L240.61,389.3 C240.608,388.886 240.523,388.477 240.362,388.095 C240.2,387.714 239.965,387.368 239.669,387.078 C239.374,386.788 239.024,386.56 238.639,386.406 C238.255,386.251 237.844,386.175 237.43,386.18 L235.58,386.18 C235.167,386.176 234.757,386.254 234.374,386.408 C233.991,386.563 233.642,386.792 233.347,387.082 C233.053,387.372 232.819,387.717 232.658,388.098 C232.497,388.478 232.413,388.887 232.41,389.3 L232.41,404" id="Path" stroke="#FFFFFF" stroke-width="0.99"></path>
            <path d="M253.739,403.3 L253.739,386.2 C253.739,384.1 252.319,382.4 250.569,382.4 L248.709,382.4 C246.959,382.4 245.539,384.1 245.539,386.2 L245.539,403.3" id="Path" stroke="#FFFFFF" stroke-width="0.99"></path>
            <path d="M255.05,424.2 L255.05,411.75 C255.05,409.65 253.63,407.95 251.88,407.95 L250,407.95 C248.25,407.95 246.83,409.65 246.83,411.75 L246.83,424.2" id="Path" stroke="#FFFFFF" stroke-width="0.99"></path>
            <path d="M266.581,423.63 L266.581,410.57 C266.581,408.47 265.161,406.77 263.411,406.77 L261.551,406.77 C259.801,406.77 258.381,408.47 258.381,410.57 L258.381,424.2" id="Path" stroke="#FFFFFF" stroke-width="0.99"></path>
            <path d="M278.62,423.08 L278.62,410.57 C278.62,408.47 277.2,406.77 275.44,406.77 L273.59,406.77 C271.84,406.77 270.41,408.47 270.41,410.57 L270.41,423.46" id="Path" stroke="#FFFFFF" stroke-width="0.99"></path>
            <path d="M278.94,366.15 L278.94,379.45 L253.74,379.45 L253.74,372.58 C254.759,372.875 255.832,372.934 256.877,372.754 C257.922,372.574 258.913,372.158 259.774,371.539 C260.635,370.919 261.344,370.113 261.847,369.179 C262.351,368.245 262.636,367.21 262.68,366.15 L278.94,366.15 Z" id="Path" stroke="#FFFFFF" stroke-width="0.99"></path>
            <polyline id="Path" stroke="#FFFFFF" stroke-width="0.99" points="264.029 402.54 264.029 379.44 270.559 379.44 270.559 402.54"></polyline>
            <path d="M287.051,386.48 L287.711,359.12 C287.711,359.12 380.131,361.01 416.141,350.49" id="Path" stroke="#67124A" stroke-width="1.32"></path>
            <path d="M295.141,368.49 C295.141,368.49 355.881,373.15 415.631,358.82" id="Path" stroke="#592E2C" stroke-width="1.32"></path>
            <path d="M229.73,352.15 L289.02,347.96" id="Path" stroke="#592E2C" stroke-width="1.32"></path>
            <path d="M228.461,404.46 L279.021,402.21" id="Path" stroke="#592E2C" stroke-width="1.32"></path>
            <path d="M228.461,425.33 L279.021,423.08" id="Path" stroke="#592E2C" stroke-width="1.32"></path>
            <polygon id="Path" fill="#592E2C" fill-rule="nonzero" points="237.94 426.97 243.1 436.66 218.17 445.56 214.33 435.44"></polygon>
            <path d="M242.75,424.28 C239.9,420.92 235.59,416.19 232.94,414.92 C232.548,414.765 232.118,414.737 231.71,414.84 C223.421,407.588 212.839,403.494 201.828,403.28 C190.817,403.065 180.083,406.744 171.519,413.669 C162.955,420.593 157.11,430.318 155.013,441.13 C152.917,451.942 154.704,463.147 160.06,472.77 C160.869,474.227 161.757,475.639 162.72,477 C170.28,490.66 165.37,499.75 170.72,500.47 C184.01,502.25 211.37,455.72 216.07,448.54 C226.35,432.85 233.51,433.64 240.22,428.01 C242.17,426.41 244.37,426.19 242.75,424.28 Z" id="Path" fill="#FFD351" fill-rule="nonzero"></path>
            <path d="M188,464.62 C188,464.62 183.59,457.53 196.38,444.26 C209.17,430.99 225.38,415.71 230.89,414.85" id="Path" stroke="#FFFFFF" stroke-width="0.99"></path>
            <path d="M166.311,484.37 C166.311,484.37 180.871,487.9 192.771,469.13 C204.671,450.36 224.441,430.59 231.381,433.84" id="Path" stroke="#FFFFFF" stroke-width="0.99"></path>
            <path d="M162.88,448.61 C157.13,433.61 165.27,419.8 165.27,419.8" id="Path" stroke="#FFFFFF" stroke-width="0.99"></path>
            <path d="M162,397.59 L151.33,432.33 L155.09,449.08 C155.09,449.08 158.16,447.08 158.85,437.03 L165.25,410.26" id="Path" fill="#FF736D" fill-rule="nonzero"></path>
            <path d="M166.76,403.27 L156.09,438 L159.84,454.75 C159.84,454.75 162.91,452.75 163.6,442.75 L170,416" id="Path" fill="#FF736D" fill-rule="nonzero"></path>
            <path d="M173.72,397.59 L163,432.33 L166.76,449.08 C166.76,449.08 169.83,447.08 170.52,437.03 L176.92,410.26" id="Path" fill="#FF736D" fill-rule="nonzero"></path>
            <path d="M180.67,394.06 L170,428.8 L173.76,445.54 C173.76,445.54 176.83,443.54 177.52,433.54 L183.92,406.77" id="Path" fill="#FF736D" fill-rule="nonzero"></path>
            <path d="M204.87,293 C201.73,326.633 196.463,360.033 189.1,393" id="Path" stroke="#592E2C" stroke-width="1.32"></path>
            <path d="M206.92,403.65 C195,402.39 188,405 183.33,414.78 C183.325,414.806 183.325,414.834 183.33,414.86 C182.79,415.92 182.33,417.01 181.88,418.04 C181.884,418.06 181.884,418.08 181.88,418.1 C181.069,420.091 180.375,422.128 179.8,424.2 L179.31,424.06 L157.41,417.68 L162,395 L190,384.2 C190,384.2 183.26,394.94 199.78,397.64 C206.48,398.68 206.92,403.65 206.92,403.65 Z" id="Path" fill="#FF736D" fill-rule="nonzero"></path>
            <path d="M180.67,394.06 L170,428.8 L173.76,445.54 C173.76,445.54 176.83,443.54 177.52,433.54 L183.92,406.77" id="Path" fill="#FF736D" fill-rule="nonzero"></path>
            <polyline id="Path" stroke="#592E2C" stroke-width="1.32" points="171.15 421.88 170 428.8 173.76 445.54"></polyline>
            <path d="M206.92,403.65 C195,402.39 188,405 183.33,414.78 C183.324,414.806 183.324,414.834 183.33,414.86 C182.82,415.96 182.33,417.03 181.88,418.04 C181.884,418.06 181.884,418.08 181.88,418.1 C180.88,420.37 179.98,422.39 179.31,424.1 C178.24,426.75 177.68,428.52 177.85,429.1 C178.17,430.1 177.02,438.18 177.02,438.18" id="Path" stroke="#592E2C" stroke-width="1.32"></path>
            <path d="M166.8,449.08 L162,432.18 C162,432.18 163.34,427.48 164.3,423.33" id="Path" stroke="#592E2C" stroke-width="1.32"></path>
            <polyline id="Path" stroke="#592E2C" stroke-width="1.32" points="158.31 424.2 156.09 435.09 159.84 454.76"></polyline>
            <polyline id="Path" stroke="#B76C59" stroke-width="1.32" points="318.881 414.28 336.941 414.28 339.981 375.82"></polyline>
            <path d="M331.9,415.37 L331.9,636.66" id="Path" stroke="#B76C59" stroke-width="1.32"></path>
            <path d="M314.599,51 L307.719,49.07 L309.829,37.07 C310.004,35.7759 310.004,34.4641 309.829,33.17 C309.643,31.8104 308.997,30.5555 307.998,29.6147 C306.999,28.6739 305.707,28.104 304.339,28 C303.339,27.91 302.339,27.83 301.339,27.66 L295.119,26.66" id="Path" stroke="#592E2C" stroke-width="1.32"></path>
            <path d="M322.051,30.2 C322.051,30.2 323.681,25.2 331.421,27.2" id="Path" stroke="#592E2C" stroke-width="1.32"></path>
            <path d="M326.739,34.94 C327.452,34.94 328.029,34.3624 328.029,33.65 C328.029,32.9376 327.452,32.36 326.739,32.36 C326.027,32.36 325.449,32.9376 325.449,33.65 C325.449,34.3624 326.027,34.94 326.739,34.94 Z" id="Path" fill="#592E2C" fill-rule="nonzero"></path>
            <path d="M301.71,34.94 C302.422,34.94 303,34.3624 303,33.65 C303,32.9376 302.422,32.36 301.71,32.36 C300.997,32.36 300.42,32.9376 300.42,33.65 C300.42,34.3624 300.997,34.94 301.71,34.94 Z" id="Path" fill="#592E2C" fill-rule="nonzero"></path>
            <path d="M310.25,63.39 C312.566,64.0429 314.964,64.3562 317.37,64.32" id="Path" stroke="#FF736D" stroke-width="0.99" stroke-linecap="round"></path>
            <polygon id="Path" fill="#007863" fill-rule="nonzero" points="424.35 467.18 425.76 501.35 538.37 463.64 538.37 429.41"></polygon>
            <polygon id="Path" fill="#007863" fill-rule="nonzero" points="383.48 447.04 386.59 483.85 425.76 501.35 425.76 467.71"></polygon>
            <polygon id="Path" fill="#25B590" fill-rule="nonzero" points="424.35 456.94 424.35 467.18 541.37 428.71 541.37 420.99"></polygon>
            <polygon id="Path" fill="#25B590" fill-rule="nonzero" points="380.961 438.08 380.961 445.8 424.351 467.18 424.351 459.45"></polygon>
            <polyline id="Path" stroke="#25B590" stroke-width="1.32" points="382.25 446.44 386.59 483.85 425.76 501.35 424.35 467.18"></polyline>
            <polyline id="Path" stroke="#25B590" stroke-width="1.32" points="384.83 465.38 424.35 485.66 538.37 447.94"></polyline>
            <polyline id="Path" stroke="#25B590" stroke-width="1.32" points="425.76 501.35 538.37 463.64 538.37 429.41"></polyline>
            <polyline id="Path" fill="#25B590" fill-rule="nonzero" points="478.471 441.15 478.471 456 489.311 452.15 489.311 438.08"></polyline>
            <polygon id="Path" stroke="#007863" stroke-width="0.99" points="380.961 438.08 424.351 459.46 541.371 420.99 541.371 428.71 424.351 467.18 380.961 445.8"></polygon>
            <path d="M445.07,436.71 C444.185,436.71 443.335,436.358 442.709,435.732 C442.082,435.105 441.73,434.256 441.73,433.37 L441.73,416.56 C441.731,415.862 441.951,415.182 442.358,414.615 C442.765,414.049 443.339,413.624 444,413.4 L475.94,402.46 C476.44,402.296 476.972,402.251 477.492,402.327 C478.013,402.403 478.509,402.6 478.94,402.9 C479.372,403.211 479.724,403.619 479.967,404.092 C480.21,404.565 480.338,405.088 480.34,405.62 L480.34,424.62 C480.294,425.476 479.921,426.281 479.299,426.87 C478.677,427.459 477.852,427.787 476.995,427.787 C476.139,427.787 475.314,427.459 474.692,426.87 C474.07,426.281 473.697,425.476 473.65,424.62 L473.65,410.3 L448.41,419 L448.41,433.42 C448.4,434.298 448.043,435.136 447.418,435.752 C446.792,436.369 445.948,436.713 445.07,436.71 Z" id="Path" fill="#25B590" fill-rule="nonzero"></path>
            <path d="M442.461,433.91 L442.461,416.66 C442.462,416.016 442.664,415.389 443.038,414.865 C443.413,414.342 443.942,413.948 444.551,413.74 L474.081,403.62 C474.547,403.461 475.044,403.415 475.531,403.487 C476.018,403.558 476.48,403.745 476.88,404.032 C477.281,404.318 477.606,404.696 477.831,405.134 C478.055,405.573 478.172,406.058 478.171,406.55 L478.171,422.46" id="Path" stroke="#FFFFFF" stroke-width="0.99"></path>
            <polyline id="Path" stroke="#FFFFFF" stroke-width="0.99" points="472 424.13 472 410.87 448.65 418.87 448.65 430.38"></polyline>
            <path d="M449.51,438.41 C448.69,438.41 447.904,438.084 447.325,437.505 C446.745,436.925 446.42,436.14 446.42,435.32 L446.42,419.78 C446.421,419.136 446.623,418.509 446.997,417.985 C447.372,417.462 447.901,417.068 448.51,416.86 L478,406.74 C478.466,406.584 478.962,406.54 479.449,406.612 C479.935,406.683 480.398,406.867 480.8,407.15 C481.2,407.437 481.525,407.816 481.749,408.254 C481.974,408.692 482.09,409.178 482.09,409.67 L482.09,427.25 C482.09,428.07 481.764,428.855 481.185,429.435 C480.605,430.014 479.819,430.34 479,430.34 C478.18,430.34 477.394,430.014 476.815,429.435 C476.235,428.855 475.91,428.07 475.91,427.25 L475.91,414 L452.56,422 L452.56,435.33 C452.557,436.141 452.236,436.918 451.666,437.494 C451.095,438.071 450.321,438.4 449.51,438.41 Z" id="Path" fill="#25B590" fill-rule="nonzero"></path>
            <path d="M446.42,435.32 L446.42,419.78 C446.421,419.136 446.623,418.509 446.997,417.985 C447.372,417.462 447.901,417.068 448.51,416.86 L478,406.74 C478.466,406.584 478.962,406.54 479.449,406.612 C479.935,406.683 480.398,406.867 480.8,407.15 C481.2,407.437 481.525,407.816 481.749,408.254 C481.974,408.692 482.09,409.178 482.09,409.67 L482.09,425.58" id="Path" stroke="#FFFFFF" stroke-width="0.99"></path>
            <polyline id="Path" stroke="#FFFFFF" stroke-width="0.99" points="476 427.25 476 414 452.65 422 452.65 433.52"></polyline>
            <path d="M468.71,361.93 L451.29,359.83 L443.05,369.9 L441.05,380.84 L439.27,390.78 L440.27,392.49 L446,403.24 C449.49,407.52 456.92,414.74 455.15,422.13 L453.27,422.88 C453.1,425 454.13,428.49 458.72,428.05 L470.72,425.3 L473.61,424.64 L473.88,420.85 L476.13,419.5 L480.3,410.3 L468.71,361.93 Z" id="Path" fill="#FF736D" fill-rule="nonzero"></path>
            <path d="M457.999,402.09 L462.429,416 L460.199,428.24 C460.199,428.24 453.749,429.72 453.289,422.85 C453.909,422.595 454.543,422.378 455.189,422.2 C455.567,422.08 455.962,422.022 456.359,422.03" id="Path" stroke="#592E2C" stroke-width="1.42"></path>
            <polyline id="Path" stroke="#592E2C" stroke-width="1.42" points="465.33 400.67 469.08 414.52 466.44 426.29 460.27 427.69"></polyline>
            <polyline id="Path" stroke="#592E2C" stroke-width="1.42" points="472.44 398.93 476.19 412.78 473 424.23 466.67 425.28"></polyline>
            <polyline id="Path" stroke="#592E2C" stroke-width="1.42" points="473.94 420.85 476.19 419.5 480.69 408.97 469.31 366.94 484.33 274.56 468.66 198.01"></polyline>
            <path d="M455.189,422.23 C454.962,419.119 454.323,416.053 453.289,413.11 C451.019,406.44 444.689,403.24 444.689,403.24" id="Path" stroke="#592E2C" stroke-width="1.42"></path>
            <path d="M444.689,411.93 L446.019,404.23" id="Path" stroke="#592E2C" stroke-width="1.42"></path>
            <polygon id="Path" fill="#25B590" fill-rule="nonzero" points="439.309 428.94 448.419 433.37 489.309 421.64 490.049 428.4 443.679 443.54 434.939 431.58"></polygon>
            <polygon id="Path" stroke="#FFFFFF" stroke-width="0.99" points="489.311 438.08 489.311 452.15 478.471 456 478.471 441.15 469.961 435.91 481.361 432.4"></polygon>
            <polyline id="Path" stroke="#FFFFFF" stroke-width="0.99" points="483.89 449.93 483.89 439.88 476.5 434.16"></polyline>
        </g>
    </g>
</svg>