<svg width="587" height="400" viewBox="0 0 587 400" fill="none" xmlns="http://www.w3.org/2000/svg">
<g clip-path="url(#clip0)">
<path d="M313.036 56.5692H388.559C396.512 56.5692 404.138 59.7283 409.762 65.3515C415.385 70.9747 418.544 78.6014 418.544 86.5538V89.182C418.544 96.6605 421.339 103.869 426.381 109.393C431.422 114.917 438.345 118.357 445.793 119.04L481.522 122.322C488.97 123.005 495.893 126.445 500.934 131.969C505.976 137.493 508.771 144.701 508.771 152.18V183.278C508.771 191.231 511.93 198.858 517.553 204.481C523.177 210.104 530.803 213.263 538.756 213.263H556.225C560.165 213.263 564.066 214.04 567.706 215.548C571.346 217.057 574.653 219.268 577.438 222.056C580.222 224.843 582.43 228.152 583.935 231.793C585.441 235.435 586.213 239.337 586.209 243.277V342.991C586.209 350.944 583.05 358.57 577.427 364.193C571.804 369.817 564.177 372.976 556.225 372.976H210.967" stroke="#25B590" stroke-width="1.36" stroke-miterlimit="10"/>
<path d="M89.651 130.686C89.651 125.149 90.7414 119.667 92.8601 114.552C94.9787 109.438 98.0841 104.79 101.999 100.875C109.905 92.9691 120.628 88.5274 131.809 88.5274H265.66C271.197 88.5261 276.681 89.6156 281.797 91.7337C286.913 93.8518 291.561 96.9569 295.477 100.872C299.393 104.787 302.499 109.435 304.618 114.55C306.738 119.666 307.828 125.149 307.828 130.686V134.379C307.823 144.898 311.75 155.039 318.838 162.812C325.925 170.585 335.662 175.428 346.137 176.39L396.375 181.002C406.85 181.965 416.587 186.808 423.675 194.58C430.763 202.353 434.689 212.494 434.684 223.014V266.725C434.684 272.262 435.775 277.745 437.894 282.861C440.013 287.976 443.12 292.624 447.035 296.539C450.951 300.454 455.6 303.559 460.716 305.677C465.832 307.795 471.315 308.885 476.852 308.884H501.414C512.598 308.884 523.323 313.326 531.231 321.234C539.139 329.142 543.582 339.868 543.582 351.052V366.303C543.582 375.25 540.028 383.831 533.701 390.158C527.374 396.485 518.793 400.039 509.846 400.039H42.1778C36.6361 400.04 31.1485 398.949 26.0288 396.828C20.909 394.707 16.2576 391.598 12.3404 387.678C8.42316 383.758 5.31703 379.105 3.19958 373.983C1.08212 368.862 -0.00511799 363.374 1.81124e-05 357.832V215.012C1.81124e-05 203.828 4.4427 193.103 12.3507 185.195C20.2588 177.287 30.9844 172.844 42.168 172.844H47.483C53.0201 172.845 58.5032 171.756 63.6192 169.638C68.7352 167.519 73.3839 164.414 77.2997 160.499C81.2155 156.585 84.3217 151.937 86.4409 146.821C88.5602 141.706 89.651 136.223 89.651 130.686V130.686Z" fill="#F7F1E8"/>
<path d="M238.23 134.816C238.23 134.816 253.299 69.9137 255.916 69.375L272.915 87.6828L238.23 134.816Z" fill="#FF736D"/>
<path d="M239.149 128.172C241.577 125.444 249.352 77.9346 254.594 76.6092" stroke="#592E2C" stroke-width="1.52" stroke-miterlimit="10"/>
<path d="M269.894 111.438V81.1155H316.875V115.217C316.874 121.618 319.221 127.798 323.474 132.595C327.726 137.392 333.592 140.475 339.966 141.264C363.521 144.205 385.445 147.463 385.445 147.463L351.731 211.887L277.84 224.773L211.724 143.051C220.614 140.998 234.738 138.998 246.837 137.493C253.206 136.695 259.064 133.607 263.309 128.809C267.555 124.011 269.896 117.834 269.894 111.438V111.438Z" fill="#FF736D"/>
<path d="M327.678 28.2017C327.678 28.2017 329.24 51.4862 329.145 50.9731C329.051 50.4601 294.873 52.0848 294.873 52.0848L307.822 31.4682L327.678 28.2017Z" fill="#592E2C"/>
<path d="M318.436 25.8246C318.436 25.8246 334.097 43.1832 329.06 74.1893C324.023 105.195 315.236 102.339 298.597 103.528C281.959 104.717 262.901 108.718 271.559 54.1456C271.559 54.1456 273.472 3.20708 318.436 25.8246Z" fill="#FF736D"/>
<path d="M327.438 82.039C323.362 80.3887 316.343 78.8666 313.622 78.9436C308.208 79.0889 299.164 79.7987 292.513 80.363C289.856 80.5887 287.182 80.1806 284.714 79.1725C282.246 78.1643 280.055 76.5851 278.321 74.5654C275.171 70.9141 271.662 66.6728 270.452 64.5778C269.928 69.9308 269.654 70.3156 269.594 75.6942C269.594 84.7925 270.761 94.9511 277.754 100.8C283.4 105.52 291.561 106.238 298.494 107.085C304.117 107.816 309.823 106.642 314.695 103.75C320.213 100.398 323.774 96.8238 324.992 90.3763C325.627 86.9559 327.798 84.211 327.678 80.7478" fill="#592E2C"/>
<path d="M271.464 58.1218H265.552C265.552 58.1218 263.295 40.806 268.924 31.8958C269.679 30.7167 270.721 29.7471 271.952 29.0773C273.184 28.4074 274.566 28.0592 275.969 28.0649H276.827C276.827 28.0649 280.809 16.2474 294.367 18.2227C300.888 19.1633 305.23 21.2754 311.821 21.1642C315.809 21.0001 319.791 21.616 323.542 22.977C324.291 23.339 324.895 23.9414 325.258 24.6872C325.874 25.7959 326.228 27.0295 326.294 28.2947C326.36 29.5599 326.137 30.8235 325.641 31.9901C325.145 33.1566 324.389 34.1954 323.431 35.0279C322.473 35.8605 321.337 36.4649 320.11 36.7955V36.7955C314.866 38.2459 309.265 37.6559 304.441 35.1452C299.636 32.6312 293.44 29.8948 289.416 30.0145C273.112 30.3908 275.077 48.8268 271.524 58.1389" fill="#592E2C"/>
<path d="M327.017 42.1827C330.407 52.4952 332.303 69.0159 324.443 91.9669C323.35 95.2009 321.487 98.123 319.014 100.483C316.541 102.844 313.531 104.572 310.242 105.52C307.521 106.273 304.716 106.679 301.892 106.726C301.892 106.726 271.001 111.001 270.074 83.7835V58.5921" stroke="#592E2C" stroke-width="1.71" stroke-miterlimit="10"/>
<path d="M320.23 29.1766C320.23 29.1766 324.16 33.4521 327.017 42.1827" stroke="#592E2C" stroke-width="1.71" stroke-miterlimit="10"/>
<path d="M270.074 65.0994C273.681 65.0994 276.605 62.186 276.605 58.5921C276.605 54.9982 273.681 52.0847 270.074 52.0847C266.468 52.0847 263.544 54.9982 263.544 58.5921C263.544 62.186 266.468 65.0994 270.074 65.0994Z" fill="#FF736D"/>
<path d="M299.842 19.3086C299.842 19.3086 311.778 22.4041 320.968 20.0183C330.158 17.6326 335.89 37.9755 314.103 37.0606C292.316 36.1456 299.842 19.3086 299.842 19.3086Z" fill="#592E2C"/>
<path d="M321.534 22.0194C323.25 21.951 324.692 22.5837 325.825 24.9182" stroke="white" stroke-width="1.29" stroke-miterlimit="10" stroke-linecap="round"/>
<path d="M319.32 22.4047C319.697 22.3018 318.952 22.216 319.32 22.156" stroke="white" stroke-width="1.29" stroke-miterlimit="10" stroke-linecap="round"/>
<path d="M305.668 73.9327L313.245 71.812L310.92 58.652C307.899 45.3979 324.229 42.1827 328.759 48.7755" stroke="#592E2C" stroke-width="1.68" stroke-miterlimit="10"/>
<path d="M295.405 47.9802C293.749 47.1251 291.02 46.612 286.824 48.5275" stroke="#592E2C" stroke-width="1.68" stroke-miterlimit="10"/>
<path d="M292.548 56.3175C293.33 56.3175 293.964 55.6858 293.964 54.9066C293.964 54.1274 293.33 53.4957 292.548 53.4957C291.766 53.4957 291.132 54.1274 291.132 54.9066C291.132 55.6858 291.766 56.3175 292.548 56.3175Z" fill="#592E2C"/>
<path d="M319.827 57.7285C320.609 57.7285 321.242 57.0968 321.242 56.3176C321.242 55.5384 320.609 54.9067 319.827 54.9067C319.045 54.9067 318.411 55.5384 318.411 56.3176C318.411 57.0968 319.045 57.7285 319.827 57.7285Z" fill="#592E2C"/>
<path d="M295.689 91.5991C295.689 91.5991 302.159 95.5069 305.067 91.0347L295.689 91.5991Z" fill="#FF736D" stroke="#FF736D" stroke-width="1.01" stroke-miterlimit="10" stroke-linecap="round"/>
<path d="M475.287 357.1L418.01 336.578C417.649 349.772 405.542 383.609 401.903 396.298C396.017 416.821 390.133 437.343 384.252 457.866L384.879 461.244L362.311 452.752L384.75 543C392.336 539.742 394.146 530.02 394.901 521.819C396.045 509.34 397.19 496.861 398.334 484.383C422.488 457.774 442.648 427.82 458.186 395.452C461.163 389.415 473.932 363.762 475.287 357.1Z" fill="#FF736D"/>
<path d="M415.898 365.173L383.531 237.463C382.568 233.665 382.4 229.71 383.039 225.844C383.677 221.979 385.109 218.286 387.243 214.996C389.378 211.707 392.17 208.89 395.445 206.724C398.72 204.557 402.408 203.086 406.279 202.403L410.244 201.711C416.907 200.534 423.773 201.75 429.621 205.142C435.469 208.535 439.92 213.885 442.182 220.241L480.135 326.736C482.556 333.542 482.298 341.01 479.414 347.634L469.864 369.576C468.046 373.746 465.253 377.422 461.719 380.297C458.185 383.173 454.013 385.164 449.549 386.106C445.086 387.047 440.461 386.911 436.061 385.709C431.661 384.507 427.614 382.274 424.256 379.196C420.156 375.435 417.251 370.56 415.898 365.173V365.173Z" fill="#FF736D"/>
<path d="M417.984 351.568C417.984 351.568 384.235 431.888 384.767 479.654" stroke="#592E2C" stroke-width="1.52" stroke-miterlimit="10"/>
<path d="M165.07 269.17C169.206 327.984 175.521 391.707 186.634 423.722L259.374 429.904C280.618 431.705 301.977 431.728 323.225 429.972L386.492 424.748C394.578 371.066 398.933 316.892 399.526 262.611L451.209 240.097C447.176 226.68 434.734 193.331 430.993 183.754C421.502 159.494 400.47 151.371 393.957 149.387L393.906 148.96C379.593 144.684 357.36 140.101 345.278 138.228C328.691 160.247 311.975 163.265 282.225 163.265C254.294 163.265 242.075 157.391 225.402 137.612C199.239 143.598 177.486 154.364 166.46 160.486C166.46 160.486 133.801 169.123 130.489 222.909" fill="#E4E1E6"/>
<path d="M316.18 167.943C305.883 171.902 293.869 172.731 278.286 172.731C250.364 172.731 238.145 166.857 221.472 147.078" stroke="#592E2C" stroke-width="1.52" stroke-miterlimit="10"/>
<path d="M338.224 156.655C337.598 157.305 337.915 156.989 337.289 157.596" stroke="#592E2C" stroke-width="1.52" stroke-miterlimit="10"/>
<path d="M345.398 148.31C344.185 149.917 342.972 151.425 341.759 152.833" stroke="#592E2C" stroke-width="1.52" stroke-miterlimit="10"/>
<path d="M396.18 243.885L390.542 246.279" stroke="#592E2C" stroke-width="1.52" stroke-miterlimit="10"/>
<path d="M445.417 222.994L403.602 240.738" stroke="#592E2C" stroke-width="1.52" stroke-miterlimit="10"/>
<path d="M356.501 223.037H360.655" stroke="#592E2C" stroke-width="1.52" stroke-miterlimit="10"/>
<path d="M369.304 223.037C369.304 225.095 368.897 227.132 368.107 229.033C367.316 230.934 366.157 232.66 364.696 234.114C363.236 235.569 361.502 236.722 359.593 237.507C357.685 238.293 355.64 238.696 353.575 238.694H331.977C327.81 238.694 323.814 237.045 320.867 234.108C317.921 231.172 316.266 227.19 316.266 223.037H351.791" stroke="#592E2C" stroke-width="1.52" stroke-miterlimit="10"/>
<path d="M165.653 230.861C165.653 230.861 159.526 322.358 186.599 423.722" stroke="#592E2C" stroke-width="1.52" stroke-miterlimit="10"/>
<path d="M271.536 55.2775L251.403 57.3721C249.885 57.53 248.783 58.8841 248.942 60.3965L254.947 117.719C255.106 119.231 256.464 120.33 257.982 120.172L278.115 118.077C279.633 117.919 280.735 116.565 280.576 115.053L274.571 57.7302C274.413 56.2177 273.054 55.1196 271.536 55.2775Z" fill="#25B590"/>
<path d="M273.757 55.0488L253.624 57.1434C252.106 57.3013 251.004 58.6554 251.163 60.1678L257.168 117.49C257.326 119.003 258.685 120.101 260.203 119.943L280.336 117.848C281.854 117.69 282.956 116.336 282.797 114.824L276.792 57.5015C276.633 55.989 275.275 54.8909 273.757 55.0488Z" fill="#25B590"/>
<path d="M271.198 55.9328C271.928 55.8585 272.656 56.0751 273.226 56.535C273.795 56.9949 274.158 57.6608 274.236 58.3869L278.286 97.0462" stroke="white" stroke-width="1.02" stroke-miterlimit="10" stroke-linecap="round"/>
<path d="M257.26 64.063C257.133 62.8465 256.042 61.9631 254.823 62.0898C253.605 62.2166 252.721 63.3055 252.848 64.5221L253.747 73.1035C253.875 74.32 254.966 75.2034 256.184 75.0767C257.402 74.9499 258.287 73.861 258.159 72.6444L257.26 64.063Z" stroke="white" stroke-width="1.02" stroke-miterlimit="10" stroke-linecap="round"/>
<path d="M255.8 71.3905C256.135 71.3557 256.365 70.9353 256.315 70.4515C256.264 69.9677 255.952 69.6037 255.617 69.6385C255.282 69.6733 255.052 70.0937 255.103 70.5775C255.153 71.0613 255.466 71.4253 255.8 71.3905Z" fill="white"/>
<path d="M254.328 111.788L279.805 109.137" stroke="white" stroke-width="1.02" stroke-miterlimit="10" stroke-linecap="round"/>
<path d="M131.424 207.457L175.547 171.543L250.493 114.524L255.101 143.666C255.101 143.666 186.556 256.703 171.574 269.324C161.097 278.174 145.522 291.557 132.737 292.814C121.29 293.908 110.873 288.795 110.873 288.795C110.873 288.795 87.3093 243.346 131.467 207.457" fill="#FF736D"/>
<path d="M122.886 215.829C152.919 186.978 207.837 147.54 241.886 120.399L245.078 105.007" stroke="#592E2C" stroke-width="1.52" stroke-miterlimit="10"/>
<path d="M292.548 97.8842C291.256 95.5835 290.109 93.2046 289.115 90.7611C288.781 89.7521 289.51 88.3155 289.115 87.0756C288.592 85.3654 287.262 83.527 286.661 81.5602C284.087 73.0605 281.418 64.9541 281.418 64.9541L279.9 66.7498C279.9 66.7498 273.275 82.7574 265.363 87.9136C259.434 89.8718 257.829 90.5303 253.11 89.6239L245.696 112.087L240.616 158.366L241.877 145.684L241.019 155.313C241.019 155.313 286.069 118.124 292.548 97.8842Z" fill="#FF736D"/>
<path d="M283.298 73.8301L286.086 78.6187L285.786 80.6966C285.429 83.3329 284.755 85.9168 283.778 88.3925L278.398 96.7982" stroke="#592E2C" stroke-width="1.68" stroke-miterlimit="10"/>
<path d="M286.069 80.8761L289.115 86.1008L288.824 88.1872C288.467 90.8245 287.79 93.4087 286.807 95.8832L283.907 101.219" stroke="#592E2C" stroke-width="1.68" stroke-miterlimit="10"/>
<path d="M289.09 90.7611L292.522 97.8841C292.522 97.8841 284.396 121.092 257.04 140.998C257.04 140.998 212.78 211.391 198.947 232.443C160.934 290.325 132.188 301.544 110.873 288.795" stroke="#592E2C" stroke-width="1.52" stroke-miterlimit="10"/>
<path d="M253.11 89.6666L261.485 88.4695C263.986 88.1114 266.274 86.8667 267.929 84.9635L276.287 75.3693L280.852 65.0567L283.907 71.2733L282.663 76.5237L279.779 82.3897L269.628 93.6343" stroke="#592E2C" stroke-width="1.52" stroke-miterlimit="10"/>
</g>
<defs>
<clipPath id="clip0">
<rect width="586.874" height="400" fill="white"/>
</clipPath>
</defs>
</svg>
