<svg width="587" height="400" viewBox="0 0 587 400" fill="none" xmlns="http://www.w3.org/2000/svg">
<g clip-path="url(#clip0)">
<path d="M342.932 55.9146H388.559C396.511 55.9146 404.138 59.0737 409.761 64.6969C415.384 70.3201 418.544 77.9468 418.544 85.8992V88.5274C418.544 96.0059 421.339 103.214 426.38 108.738C431.422 114.262 438.345 117.703 445.793 118.385L481.522 121.668C488.968 122.35 495.891 125.791 500.931 131.315C505.97 136.839 508.763 144.048 508.761 151.525V182.624C508.764 190.575 511.924 198.201 517.546 203.823C523.169 209.446 530.794 212.606 538.746 212.608H556.225C564.177 212.608 571.804 215.767 577.427 221.391C583.05 227.014 586.209 234.641 586.209 242.593V342.337C586.209 350.289 583.05 357.916 577.427 363.539C571.804 369.162 564.177 372.321 556.225 372.321H210.957" stroke="#25B590" stroke-width="1.36" stroke-miterlimit="10"/>
<path d="M89.6412 130.031C89.64 124.494 90.7295 119.011 92.8475 113.895C94.9656 108.779 98.0708 104.13 101.986 100.214C105.901 96.2985 110.548 93.1923 115.664 91.0731C120.779 88.9538 126.262 87.863 131.799 87.863H265.651C271.188 87.863 276.671 88.9538 281.786 91.0731C286.902 93.1923 291.55 96.2985 295.464 100.214C299.379 104.13 302.484 108.779 304.603 113.895C306.721 119.011 307.81 124.494 307.809 130.031V133.724C307.804 144.243 311.73 154.384 318.818 162.157C325.906 169.93 335.643 174.773 346.118 175.736L396.366 180.347C406.841 181.31 416.577 186.153 423.665 193.926C430.753 201.699 434.68 211.84 434.674 222.359V266.09C434.674 277.271 439.116 287.994 447.022 295.901C454.928 303.807 465.652 308.248 476.833 308.248H501.405C512.588 308.248 523.314 312.691 531.222 320.599C539.13 328.507 543.573 339.233 543.573 350.416V365.668C543.573 374.615 540.018 383.196 533.691 389.523C527.365 395.85 518.784 399.404 509.836 399.404H42.1583C36.6162 399.404 31.1286 398.311 26.0092 396.188C20.8899 394.065 16.2394 390.954 12.3237 387.032C8.40806 383.11 5.30413 378.454 3.18951 373.332C1.07489 368.209 -0.00893511 362.719 5.54787e-05 357.177V214.357C-0.00122775 208.82 1.08828 203.337 3.20635 198.221C5.32443 193.105 8.42958 188.456 12.3445 184.541C16.2593 180.625 20.9073 177.519 26.0228 175.399C31.1383 173.28 36.6212 172.189 42.1583 172.189H47.483C58.6641 172.189 69.3872 167.748 77.2934 159.841C85.1996 151.935 89.6412 141.212 89.6412 130.031Z" fill="#F7F1E8"/>
<path d="M199.879 239.554L140.965 227.293C140.965 227.293 124.355 278.195 114.204 314.247C104.053 350.299 119.021 365.687 119.021 365.687" fill="#FF736D"/>
<path d="M481.415 349.899L425.139 329.684C424.787 342.688 412.887 376.044 409.311 388.559C403.534 408.803 397.753 429.047 391.969 449.29L392.585 452.622L370.416 444.249L392.457 533.226C399.912 530.012 401.69 520.437 402.433 512.347C403.573 500.05 404.709 487.746 405.843 475.435C429.569 449.21 449.373 419.688 464.639 387.787C467.531 381.749 480.076 356.454 481.415 349.899Z" fill="#FF736D"/>
<path d="M423.049 357.852L391.266 231.944C390.317 228.198 390.15 224.297 390.775 220.484C391.401 216.671 392.806 213.028 394.903 209.782C397 206.536 399.743 203.758 402.962 201.62C406.181 199.482 409.806 198.031 413.611 197.357L417.519 196.673C424.064 195.516 430.808 196.717 436.552 200.062C442.295 203.407 446.667 208.68 448.891 214.943L486.174 319.934C488.558 326.644 488.303 334.01 485.461 340.539L476.081 362.141C474.295 366.252 471.552 369.876 468.08 372.711C464.608 375.546 460.508 377.51 456.123 378.437C451.738 379.365 447.194 379.23 442.871 378.043C438.549 376.857 434.573 374.654 431.275 371.618C427.252 367.927 424.393 363.143 423.049 357.852Z" fill="#FF736D"/>
<path d="M425.111 344.437C425.111 344.437 391.961 423.575 392.479 470.716" stroke="#592E2C" stroke-width="1.52" stroke-miterlimit="10"/>
<path d="M317.971 107.696V77.7998H271.816V111.38C271.824 117.695 269.524 123.794 265.347 128.531C261.17 133.267 255.406 136.313 249.14 137.095C226.004 140.026 204.471 143.201 204.471 143.201L237.592 206.707L310.184 219.408L375.175 138.853C366.431 136.831 352.557 134.857 340.676 133.372C334.412 132.598 328.646 129.561 324.464 124.832C320.282 120.103 317.973 114.009 317.971 107.696Z" fill="#FF736D"/>
<path d="M201.764 397.372C244.635 395.203 287.966 402.062 330.378 395.418C351.579 392.096 372.546 385.413 393.982 386.468" stroke="#592E2C" stroke-width="1.52" stroke-miterlimit="10"/>
<path d="M457.752 234.542C453.844 221.304 441.573 188.427 437.889 178.999C428.569 155.072 407.905 147.06 401.505 145.106C401.505 144.852 401.456 144.716 401.456 144.716C385.74 140.304 369.79 136.772 353.68 134.134C337.384 155.834 320.96 158.814 291.728 158.814C264.293 158.814 252.295 153.03 235.911 133.548C215.668 138.388 196.185 145.978 178.003 156.108C164.807 162.335 154.505 173.39 149.22 186.991C145.576 196.38 133.324 229.306 129.357 242.534L176.635 263.208C180.7 321.184 186.904 384.016 197.827 415.622L269.286 421.709C290.155 423.489 311.136 423.515 332.01 421.787L394.168 416.629C402.116 363.708 406.396 310.3 406.976 256.789L457.752 234.542Z" fill="#E4E1E6"/>
<path d="M325.094 163.406C314.982 167.314 303.189 168.125 287.87 168.125C260.435 168.125 248.428 162.331 232.043 142.859" stroke="#592E2C" stroke-width="1.52" stroke-miterlimit="10"/>
<path d="M346.754 152.248C346.139 152.893 346.452 152.581 345.777 153.177" stroke="#592E2C" stroke-width="1.52" stroke-miterlimit="10"/>
<path d="M353.799 144.041C352.62 145.631 351.431 147.119 350.232 148.506" stroke="#592E2C" stroke-width="1.52" stroke-miterlimit="10"/>
<path d="M403.694 238.275L398.154 240.629" stroke="#592E2C" stroke-width="1.52" stroke-miterlimit="10"/>
<path d="M452.066 217.679L410.982 235.168" stroke="#592E2C" stroke-width="1.52" stroke-miterlimit="10"/>
<path d="M364.701 217.718H368.785" stroke="#592E2C" stroke-width="1.52" stroke-miterlimit="10"/>
<path d="M377.286 217.718C377.286 221.812 375.66 225.739 372.765 228.634C369.87 231.529 365.943 233.155 361.849 233.155H340.619C336.524 233.155 332.598 231.529 329.703 228.634C326.808 225.739 325.182 221.812 325.182 217.718H360.081" stroke="#592E2C" stroke-width="1.52" stroke-miterlimit="10"/>
<path d="M177.242 225.437C177.242 225.437 171.224 315.644 197.828 415.574" stroke="#592E2C" stroke-width="1.52" stroke-miterlimit="10"/>
<path d="M261.196 25.6369C261.196 25.6369 259.672 48.587 259.76 48.1083C259.847 47.6295 293.427 49.2025 293.427 49.2025L280.726 28.8806L261.196 25.6369Z" fill="#592E2C"/>
<path d="M270.283 23.2627C270.283 23.2627 254.895 40.3996 259.887 70.9802C264.88 101.561 273.468 98.7274 289.813 99.8999C306.159 101.072 324.888 105.019 316.388 51.2054C316.339 51.2054 314.454 0.977005 270.283 23.2627Z" fill="#FF736D"/>
<path d="M261.44 78.7084C265.436 77.0865 272.334 75.5917 275.011 75.6601C284.195 75.9141 292.978 83.3883 301.732 80.5452C305.728 79.2555 308.777 75.9825 311.043 72.4457C312.45 70.2572 315.079 65.6066 317.423 61.5031C317.941 66.779 318.205 67.1601 318.224 72.4653C318.224 81.4343 317.081 91.4487 310.213 97.2228C305.963 100.779 300.277 102.03 294.786 102.792C287.947 103.769 280.502 104.013 274.542 100.496C268.768 97.0861 265.046 93.5395 263.795 86.9349C263.179 83.5837 261.05 80.8578 261.167 77.448" fill="#592E2C"/>
<path d="M316.427 55.133H322.24C322.24 55.133 324.448 38.1036 318.919 29.3105C318.18 28.1465 317.157 27.189 315.948 26.5278C314.738 25.8665 313.38 25.523 312.001 25.5294H311.122C309.868 22.1378 307.452 19.3008 304.304 17.5226C301.155 15.7445 297.478 15.1404 293.926 15.8179C287.517 16.7949 283.258 18.8369 276.78 18.7489C272.875 18.589 268.976 19.1896 265.3 20.5173C264.57 20.8838 263.983 21.4816 263.629 22.2173C263.032 23.3085 262.689 24.5207 262.627 25.7632C262.565 27.0056 262.786 28.246 263.272 29.3911C263.758 30.5362 264.497 31.5563 265.434 32.3749C266.371 33.1934 267.481 33.7892 268.68 34.1174C273.831 35.5425 279.331 34.9594 284.068 32.4858C288.787 30.0139 294.874 27.3174 298.831 27.4053C314.854 27.7766 312.92 45.91 316.417 55.133" fill="#592E2C"/>
<path d="M261.84 39.4226C258.509 49.5835 256.643 65.8704 264.342 88.4981C265.419 91.6896 267.254 94.5725 269.689 96.9002C272.123 99.2279 275.086 100.931 278.323 101.864C280.997 102.606 283.755 103.007 286.53 103.056C286.53 103.056 316.886 107.257 317.794 80.4279V55.5922" stroke="#592E2C" stroke-width="1.48" stroke-miterlimit="10"/>
<path d="M268.515 26.5944C268.515 26.5944 264.665 30.8248 261.852 39.4226" stroke="#592E2C" stroke-width="1.48" stroke-miterlimit="10"/>
<path d="M317.794 62.0014C321.334 62.0014 324.203 59.1319 324.203 55.5922C324.203 52.0525 321.334 49.183 317.794 49.183C314.254 49.183 311.385 52.0525 311.385 55.5922C311.385 59.1319 314.254 62.0014 317.794 62.0014Z" fill="#FF736D"/>
<path d="M288.543 16.8731C288.543 16.8731 276.818 19.8823 267.801 17.5667C258.783 15.2512 253.145 35.2898 274.522 34.3714C295.9 33.453 288.543 16.8731 288.543 16.8731Z" fill="#592E2C"/>
<path d="M267.234 19.5403C265.573 19.4719 264.127 20.0972 263.053 22.403" stroke="white" stroke-width="1.11" stroke-miterlimit="10" stroke-linecap="round"/>
<path d="M269.413 19.9116C269.042 19.8139 269.774 19.7259 269.413 19.6673" stroke="white" stroke-width="1.11" stroke-miterlimit="10" stroke-linecap="round"/>
<path d="M277.347 87.6383C277.347 87.6383 272.599 86.8665 269.814 83.6325" stroke="#FF736D" stroke-width="1.11" stroke-miterlimit="10" stroke-linecap="round"/>
<path d="M282.828 70.7164L275.393 68.6353L277.679 55.6899C277.87 54.2894 277.87 52.8696 277.679 51.4692C277.467 50.0087 276.764 48.6639 275.686 47.6556C274.609 46.6472 273.22 46.0351 271.749 45.9197C270.655 45.822 269.55 45.7243 268.466 45.5485L261.754 44.4347" stroke="#592E2C" stroke-width="1.45" stroke-miterlimit="10"/>
<path d="M290.869 43.145C290.869 43.145 292.628 37.7323 300.981 39.9502" stroke="#592E2C" stroke-width="1.45" stroke-miterlimit="10"/>
<path d="M295.714 53.3451C296.48 53.3451 297.101 52.7239 297.101 51.9577C297.101 51.1915 296.48 50.5703 295.714 50.5703C294.947 50.5703 294.326 51.1915 294.326 51.9577C294.326 52.7239 294.947 53.3451 295.714 53.3451Z" fill="#592E2C"/>
<path d="M268.915 54.7422C269.681 54.7422 270.302 54.121 270.302 53.3548C270.302 52.5886 269.681 51.9675 268.915 51.9675C268.148 51.9675 267.527 52.5886 267.527 53.3548C267.527 54.121 268.148 54.7422 268.915 54.7422Z" fill="#592E2C"/>
<path d="M197.672 143.035C208.225 156.363 222.493 166.264 238.672 171.485C254.851 176.706 272.215 177.014 288.569 172.368C304.922 167.723 319.532 158.334 330.551 145.388C341.57 132.441 348.503 116.519 350.474 99.633C352.446 82.7471 349.367 65.6557 341.627 50.5192C333.887 35.3827 321.833 22.8805 306.989 14.593C292.146 6.30546 275.178 2.60462 258.231 3.95822C241.285 5.31182 225.12 11.6591 211.78 22.1978C193.887 36.3527 182.349 57.0346 179.704 79.6951C177.058 102.356 183.521 125.139 197.672 143.035ZM206.729 135.874C197.586 124.319 192.076 110.314 190.894 95.6275C189.713 80.9413 192.913 66.2347 200.09 53.3675C207.268 40.5003 218.1 30.0507 231.216 23.3402C244.333 16.6298 259.145 13.9599 273.779 15.6684C288.414 17.3769 302.212 23.3869 313.431 32.9384C324.649 42.4899 332.783 55.1537 336.803 69.3281C340.823 83.5026 340.55 98.551 336.017 112.57C331.484 126.589 322.895 138.949 311.338 148.086C303.668 154.155 294.877 158.653 285.469 161.324C276.06 163.994 266.217 164.785 256.503 163.651C246.789 162.517 237.393 159.48 228.852 154.714C220.312 149.948 212.794 143.546 206.729 135.874Z" fill="#25B590"/>
<path d="M241.647 294.473L249.873 295.586C250.187 295.627 250.506 295.606 250.812 295.522C251.117 295.439 251.403 295.296 251.653 295.102C251.903 294.907 252.112 294.665 252.268 294.39C252.423 294.114 252.523 293.81 252.56 293.496L267.049 170.079L254.094 168.33L239.595 291.835C239.52 292.456 239.694 293.082 240.078 293.576C240.462 294.07 241.026 294.392 241.647 294.473Z" fill="#25B590"/>
<path d="M244.469 250.595L240.121 289.265" stroke="#592E2C" stroke-width="1.52" stroke-miterlimit="10"/>
<path d="M119.021 365.687C119.021 365.687 153.012 373.308 178.795 346.391L257.738 237.708L235.589 222.525L180.388 264.771L139.089 298.566" fill="#FF736D"/>
<path d="M231.748 226.756C231.748 226.756 249.334 189.307 251.757 189.307L248.338 224.557L231.748 226.756Z" fill="#FF736D"/>
<path d="M131.107 306.47C159.255 279.299 199.313 249.989 232.043 225.691C234.974 223.541 247.196 188.672 252.482 188.427" stroke="#592E2C" stroke-width="1.7" stroke-miterlimit="10"/>
<path d="M253.263 175.697L249.746 206.961" stroke="#592E2C" stroke-width="1.52" stroke-miterlimit="10"/>
<path d="M276.858 211.856C276.199 211.554 275.609 211.118 275.127 210.576C274.644 210.035 274.279 209.4 274.054 208.71C273.751 207.801 274.386 206.385 274.054 205.261C273.575 203.669 271.592 202.145 271.044 200.376C268.68 192.648 266.306 185.281 266.306 185.281L264.928 186.903C264.928 186.903 258.91 201.441 251.758 206.15C246.385 207.928 248.104 207.45 243.825 206.668L233.947 228.162L230.039 263.55L230.459 258.665L245.026 251.728C245.026 251.728 275.675 231.553 276.858 211.856Z" fill="#FF736D"/>
<path d="M269.227 207.313C270.112 205.076 270.722 202.74 271.044 200.357L271.308 198.461L268.104 192.931" stroke="#592E2C" stroke-width="1.62" stroke-miterlimit="10"/>
<path d="M271.963 214.123C272.845 211.881 273.459 209.543 273.79 207.157L274.054 205.261L271.299 200.513" stroke="#592E2C" stroke-width="1.62" stroke-miterlimit="10"/>
<path d="M250.957 247.048L266.912 231.758C272.344 226.411 275.843 219.41 276.858 211.856L273.253 208.71" stroke="#592E2C" stroke-width="1.62" stroke-miterlimit="10"/>
<path d="M245.545 207.714L248.544 206.951C250.637 206.416 252.515 205.253 253.928 203.62L261.656 194.719L265.789 185.35L268.554 191.007L267.43 195.774L264.997 203.698" stroke="#592E2C" stroke-width="1.62" stroke-miterlimit="10"/>
<g style="mix-blend-mode:multiply" opacity="0.13">
<path d="M344.321 90.1102C344.333 108.192 338.077 125.719 326.616 139.705C315.156 153.692 299.2 163.271 281.469 166.813C263.737 170.355 245.326 167.639 229.372 159.129C213.418 150.618 200.908 136.839 193.974 120.14C187.04 103.441 186.11 84.8534 191.343 67.5453C196.576 50.2371 207.648 35.2788 222.673 25.2187C237.698 15.1585 255.746 10.619 273.743 12.3734C291.74 14.1279 308.571 22.0678 321.37 34.8404C328.641 42.0919 334.411 50.7061 338.349 60.1899C342.287 69.6738 344.316 79.8412 344.321 90.1102Z" fill="#25B590"/>
</g>
<path opacity="0.55" d="M292.872 16.6679L192.767 116.773C187.708 102.804 186.735 87.6821 189.962 73.1798C193.189 58.6776 200.483 45.3955 210.989 34.89C221.494 24.3845 234.776 17.0908 249.278 13.8634C263.781 10.6361 278.902 11.609 292.872 16.6679Z" fill="white"/>
<path d="M192.882 117.046C186.394 100.24 185.91 81.7072 191.514 64.5849C197.117 47.4625 208.463 32.8016 223.633 23.0827C238.803 13.3638 256.864 9.18374 274.761 11.2497C292.658 13.3157 309.292 21.5008 321.848 34.4203" stroke="white" stroke-width="1.5" stroke-miterlimit="10"/>
<path d="M216.574 160.69C231.441 170.872 249.128 176.13 267.143 175.722C285.157 175.314 302.589 169.262 316.979 158.418C331.37 147.574 341.993 132.486 347.35 115.282C352.708 98.0778 352.529 79.626 346.84 62.529" stroke="#592E2C" stroke-width="1.52" stroke-miterlimit="10"/>
</g>
<defs>
<clipPath id="clip0">
<rect width="586.874" height="400" fill="white"/>
</clipPath>
</defs>
</svg>
