<svg width="26" height="26" viewBox="0 0 26 26" fill="none" xmlns="http://www.w3.org/2000/svg">
<path d="M25 13.0456C25 15.2357 24.4545 17.3346 23.3636 19.0684C21.2727 22.6274 17.4545 25 13 25C12.3636 25 11.7273 24.9087 11.0909 24.8175C7.45455 24.27 4.45455 22.0798 2.63636 18.9772C1.63636 17.2433 1 15.1445 1 12.9544C1 12.6806 1 12.4981 1 12.2243C1.18182 9.6692 2.09091 7.29658 3.63637 5.47148C5.81818 2.73384 9.18182 1 12.9091 1C16.6364 1 20 2.73384 22.1818 5.47148C23.7273 7.38783 24.6364 9.6692 24.8182 12.2243C25 12.5893 25 12.8631 25 13.0456Z" stroke="#572D2D" stroke-miterlimit="10"/>
<path d="M23.3636 19.0684C21.2726 22.6274 17.4545 25 12.9999 25C12.3635 25 11.7272 24.9087 11.0908 24.8175V18.9772H23.3636V19.0684Z" stroke="#572D2D" stroke-miterlimit="10"/>
<path d="M11.0913 19.0684V24.9087C7.4549 24.3612 4.4549 22.1711 2.63672 19.0684H11.0913V19.0684Z" stroke="#572D2D" stroke-miterlimit="10"/>
<path d="M24.9086 12.3156H8.4541V5.56274H22.2723C23.8177 7.47909 24.8177 9.76046 24.9086 12.3156Z" stroke="#572D2D" stroke-miterlimit="10"/>
<path d="M8.45455 5.56274V12.3156H1C1.18182 9.76046 2.09091 7.38784 3.63637 5.56274H8.45455Z" stroke="#572D2D" stroke-miterlimit="10"/>
<path d="M25.0002 13.0457C25.0002 15.2358 24.4547 17.3346 23.3638 19.0685H15.8184V12.3156H25.0002C25.0002 12.5894 25.0002 12.8631 25.0002 13.0457Z" stroke="#572D2D" stroke-miterlimit="10"/>
<path d="M15.8182 12.3156V19.0685H2.63636C1.63636 17.3346 1 15.2358 1 13.0457C1 12.7719 1 12.5894 1 12.3156H15.8182V12.3156Z" stroke="#572D2D" stroke-miterlimit="10"/>
</svg>
