<svg width="26" height="26" viewBox="0 0 26 26" fill="none" xmlns="http://www.w3.org/2000/svg">
<path d="M13 25.2C19.6274 25.2 25 19.8274 25 13.2C25 6.5726 19.6274 1.20001 13 1.20001C6.37258 1.20001 1 6.5726 1 13.2C1 19.8274 6.37258 25.2 13 25.2Z" stroke="#572D2D" stroke-miterlimit="10"/>
<path d="M22.9847 19.9786H13" stroke="#572D2D" stroke-miterlimit="10"/>
<path d="M13.0003 19.9786C16.744 19.9786 19.7789 16.9437 19.7789 13.2C19.7789 9.45628 16.744 6.42139 13.0003 6.42139C9.25657 6.42139 6.22168 9.45628 6.22168 13.2C6.22168 16.9437 9.25657 19.9786 13.0003 19.9786Z" stroke="#572D2D" stroke-miterlimit="10"/>
<path d="M13.0005 17.5969C15.4288 17.5969 17.3974 15.6284 17.3974 13.2C17.3974 10.7716 15.4288 8.80304 13.0005 8.80304C10.5721 8.80304 8.60352 10.7716 8.60352 13.2C8.60352 15.6284 10.5721 17.5969 13.0005 17.5969Z" stroke="#572D2D" stroke-miterlimit="10"/>
<path d="M13.0002 15.3985C14.2144 15.3985 15.1987 14.4142 15.1987 13.2C15.1987 11.9858 14.2144 11.0015 13.0002 11.0015C11.786 11.0015 10.8018 11.9858 10.8018 13.2C10.8018 14.4142 11.786 15.3985 13.0002 15.3985Z" stroke="#572D2D" stroke-miterlimit="10"/>
</svg>
