<svg width="527" height="171" viewBox="0 0 527 171" fill="none" xmlns="http://www.w3.org/2000/svg">
<path d="M89.6303 74.4688H138.472C138.472 60.9943 127.541 50.0737 114.053 50.0737C111.118 50.0737 108.305 50.5896 105.697 51.5368C96.3235 54.9449 89.6303 63.926 89.6303 74.4688Z" fill="#057764"/>
<path d="M26.5385 58.9818C26.5385 64.4731 27.6502 69.7078 29.6622 74.4689H103.268C105.28 69.7078 106.389 64.4731 106.389 58.9818C106.389 56.4363 106.152 53.9473 105.695 51.5371C102.201 33.0676 85.9676 19.0942 66.4636 19.0942C44.4143 19.0942 26.5385 36.9549 26.5385 58.9818Z" fill="#057764"/>
<path d="M-0.168945 0L44.3353 44.2709C61.178 61.0252 84.0169 70.4336 107.838 70.4336H157.356C181.173 70.4336 204.016 79.8465 220.859 96.5963C237.702 113.351 260.54 122.759 284.361 122.759H330.039C353.855 122.759 376.699 132.172 393.542 148.922L415.755 171.019H-0.168945V0Z" fill="#F5F1E8"/>
<path d="M385.012 171.023H420.166C420.166 161.326 412.298 153.464 402.589 153.464C400.475 153.464 398.452 153.836 396.576 154.519C389.829 156.974 385.012 163.438 385.012 171.023Z" fill="#057764"/>
<path d="M314.327 171.023H349.48C349.48 161.326 341.613 153.464 331.904 153.464C329.79 153.464 327.767 153.836 325.891 154.519C319.144 156.974 314.327 163.438 314.327 171.023Z" fill="#057764"/>
<path d="M339.604 159.878C339.604 163.83 340.405 167.599 341.853 171.024H394.826C396.273 167.596 397.072 163.83 397.072 159.878C397.072 158.045 396.903 156.255 396.573 154.519C394.058 141.225 382.373 131.17 368.338 131.17C352.469 131.17 339.604 144.024 339.604 159.878Z" fill="#057764"/>
<path d="M457.748 170.666H527C527 151.559 511.5 136.075 492.374 136.075C488.212 136.075 484.225 136.808 480.528 138.149C467.235 142.987 457.748 155.72 457.748 170.666Z" fill="#057764"/>
<path d="M368.29 148.707C368.29 156.495 369.867 163.915 372.72 170.666H477.083C479.936 163.915 481.508 156.495 481.508 148.707C481.508 145.098 481.172 141.569 480.526 138.15C475.573 111.962 452.553 92.1509 424.9 92.1509C393.638 92.1537 368.29 117.476 368.29 148.707Z" fill="#057764"/>
</svg>
