<?xml version="1.0" encoding="UTF-8"?>
<svg width="34px" height="20px" viewBox="0 0 34 20" version="1.1" xmlns="http://www.w3.org/2000/svg" xmlns:xlink="http://www.w3.org/1999/xlink">
    <!-- Generator: Sketch 53.2 (72643) - https://sketchapp.com -->
    <title>Group</title>
    <desc>Created with Sketch.</desc>
    <g id="Page-1" stroke="none" stroke-width="1" fill="none" fill-rule="evenodd">
        <g id="CON-Logotype-Couleur" transform="translate(-81.000000, 0.000000)" fill="#522F2F">
            <g id="Group" transform="translate(81.170625, 0.565000)">
                <path d="M22.505625,13.744375 C21.988125,14.344375 21.236875,14.6925 20.350625,14.6925 C18.96375,14.6925 17.894375,13.814375 17.57125,12.43 C17.50625,12.15 17.47125,11.848125 17.47125,11.530625 L17.47125,11.47375 C17.495625,9.615625 18.7,8.36875 20.350625,8.36875 C21.236875,8.36875 21.988125,8.71625 22.505625,9.316875 C22.981875,9.86375 23.256875,10.628125 23.256875,11.530625 C23.256875,12.4325 22.981875,13.1975 22.505625,13.744375 Z M22.505625,4.460625 C21.829375,4.283125 21.1075,4.190625 20.350625,4.190625 C16.07875,4.190625 12.895625,7.126875 12.86875,11.47375 L12.86875,11.530625 C12.83625,12.9525 11.67,14.1025 10.24,14.1025 C8.79125,14.1025 7.61375,12.9225 7.61375,11.47375 L7.61375,10.369375 L10.775625,10.369375 C10.975,8.54625 11.635,6.9225 12.65875,5.605 L7.61375,5.605 L7.61375,0 L2.846875,0 L2.846875,5.605 L5.32907052e-14,5.605 L5.32907052e-14,10.369375 L2.846875,10.369375 L2.846875,11.47375 C2.846875,15.55125 6.1625,18.87 10.24,18.87 C12.128125,18.87 13.851875,18.15875 15.160625,16.986875 C16.48,18.185625 18.2875,18.87 20.350625,18.87 C21.1075,18.87 21.829375,18.778125 22.505625,18.6 C25.6675,17.781875 27.83,15.136875 27.83,11.530625 C27.83,7.92375 25.6675,5.279375 22.505625,4.460625 L22.505625,4.460625 Z" id="Fill-6"></path>
                <path d="M31.045625,13.92875 C29.606875,13.92875 28.561875,15.000625 28.561875,16.385 C28.561875,17.766875 29.606875,18.86875 31.045625,18.86875 C32.48625,18.86875 33.52875,17.766875 33.52875,16.385 C33.52875,15.000625 32.48625,13.92875 31.045625,13.92875" id="Fill-7"></path>
            </g>
        </g>
    </g>
</svg>